<svg width="71" height="16" viewBox="0 0 71 16" fill="none" xmlns="http://www.w3.org/2000/svg">
<path d="M70.3536 8.35355C70.5488 8.15829 70.5488 7.84171 70.3536 7.64645L67.1716 4.46447C66.9763 4.2692 66.6597 4.2692 66.4645 4.46447C66.2692 4.65973 66.2692 4.97631 66.4645 5.17157L69.2929 8L66.4645 10.8284C66.2692 11.0237 66.2692 11.3403 66.4645 11.5355C66.6597 11.7308 66.9763 11.7308 67.1716 11.5355L70.3536 8.35355ZM0 8.5H1.45833V7.5H0V8.5ZM4.375 8.5H7.29167V7.5H4.375V8.5ZM10.2083 8.5H13.125V7.5H10.2083V8.5ZM16.0417 8.5H18.9583V7.5H16.0417V8.5ZM21.875 8.5H24.7917V7.5H21.875V8.5ZM27.7083 8.5H30.625V7.5H27.7083V8.5ZM33.5417 8.5H35V7.5H33.5417V8.5ZM35 8.5H36.4583V7.5H35V8.5ZM39.375 8.5H42.2917V7.5H39.375V8.5ZM45.2083 8.5H48.125V7.5H45.2083V8.5ZM51.0417 8.5H53.9583V7.5H51.0417V8.5ZM56.875 8.5H59.7917V7.5H56.875V8.5ZM62.7083 8.5H65.625V7.5H62.7083V8.5ZM68.5417 8.5H70V7.5H68.5417V8.5ZM70.7071 8.70711C71.0976 8.31658 71.0976 7.68342 70.7071 7.29289L64.3431 0.928932C63.9526 0.538408 63.3195 0.538408 62.9289 0.928932C62.5384 1.31946 62.5384 1.95262 62.9289 2.34315L68.5858 8L62.9289 13.6569C62.5384 14.0474 62.5384 14.6805 62.9289 15.0711C63.3195 15.4616 63.9526 15.4616 64.3431 15.0711L70.7071 8.70711ZM0 9H1.45833V7H0V9ZM4.375 9H7.29167V7H4.375V9ZM10.2083 9H13.125V7H10.2083V9ZM16.0417 9H18.9583V7H16.0417V9ZM21.875 9H24.7917V7H21.875V9ZM27.7083 9H30.625V7H27.7083V9ZM33.5417 9H35V7H33.5417V9ZM35 9H36.4583V7H35V9ZM39.375 9H42.2917V7H39.375V9ZM45.2083 9H48.125V7H45.2083V9ZM51.0417 9H53.9583V7H51.0417V9ZM56.875 9H59.7917V7H56.875V9ZM62.7083 9H65.625V7H62.7083V9ZM68.5417 9H70V7H68.5417V9Z" fill="#FF8400"/>
</svg>
