<svg width="70" height="62" viewBox="0 0 70 62" fill="none" xmlns="http://www.w3.org/2000/svg">
<path d="M37.9394 51.5497C37.4987 50.3386 36.3369 49.5251 35.0488 49.5251C34.69 49.5251 34.3362 49.5878 33.9968 49.7111C32.4031 50.2913 31.5786 52.06 32.1584 53.6539C32.5992 54.8648 33.761 55.6783 35.0492 55.6783C35.4079 55.6783 35.7617 55.6157 36.1009 55.4923C37.6948 54.9122 38.5195 53.1435 37.9394 51.5497ZM35.3997 53.5653C35.2861 53.6067 35.1681 53.6276 35.0493 53.6276C34.6197 53.6276 34.2324 53.3564 34.0854 52.9525C33.8921 52.4212 34.1671 51.8316 34.6982 51.6383C34.8118 51.5968 34.9298 51.5759 35.0486 51.5759C35.478 51.5759 35.8654 51.8472 36.0123 52.2512C36.2058 52.7823 35.931 53.3718 35.3997 53.5653Z" fill="black"/>
<path d="M69.9378 42.0943L68.5348 38.2402C68.4388 37.9765 68.2458 37.7765 68.0109 37.6649C68.0088 37.664 68.0068 37.6628 68.0047 37.6618C67.9894 37.6546 67.9734 37.6489 67.9577 37.6425C67.9429 37.6365 67.9284 37.6297 67.9134 37.6243C67.9098 37.623 67.906 37.6221 67.9023 37.6211C67.6886 37.5479 67.4495 37.5439 67.2208 37.6273L63.8678 38.8467L56.7351 19.2485C56.7349 19.2479 56.7345 19.2475 56.7344 19.2471L53.9297 11.5406C53.7821 11.1373 53.3952 10.8665 52.9659 10.8665C52.8469 10.8665 52.728 10.887 52.6159 10.928C52.0841 11.1207 51.8093 11.7114 52.002 12.2418L54.4576 18.9864L41.2896 23.7789C41.2895 23.7789 41.2892 23.7789 41.2889 23.779C41.2885 23.7792 41.2883 23.7795 41.2879 23.7795L33.26 26.7011L27.8821 11.9281L34.9487 9.3564L36.4684 13.5309C36.6147 13.9343 37.0016 14.2065 37.4309 14.2065C37.5512 14.2065 37.6688 14.186 37.7823 14.1434L42.9214 12.2731C43.1784 12.1802 43.3835 11.9915 43.4997 11.744C43.5855 11.56 43.6136 11.3595 43.585 11.1635C43.5849 11.1624 43.5849 11.1614 43.5847 11.1604C43.5807 11.1337 43.575 11.1069 43.5689 11.0806C43.5671 11.073 43.5661 11.0659 43.5643 11.0584C43.556 11.0252 43.5459 10.9922 43.534 10.9594L42.0148 6.78474L49.0798 4.21348L50.5993 8.38762C50.747 8.79094 51.1339 9.06301 51.5632 9.06301C51.6821 9.06301 51.8011 9.0425 51.9145 9.00011C52.445 8.80734 52.7198 8.21795 52.527 7.68626L50.6567 2.54717C50.5275 2.1943 50.2153 1.94287 49.8515 1.88545C49.7995 1.87725 49.7465 1.87301 49.6929 1.87301C49.5739 1.87301 49.455 1.89352 49.3429 1.93453L40.3545 5.20633C40.353 5.20688 40.3513 5.20701 40.3498 5.20756C40.3471 5.20852 40.3446 5.20988 40.3419 5.21084L35.2198 7.0754C35.2168 7.07649 35.2137 7.07677 35.2107 7.07786C35.2057 7.07978 35.2009 7.08224 35.1958 7.08415L26.2177 10.3521C25.9607 10.4451 25.7556 10.6338 25.6394 10.8812C25.5232 11.13 25.5109 11.4088 25.6052 11.666L31.6834 28.3668L37.5285 44.4273C36.7875 44.2009 36.0094 44.0737 35.2127 44.0583L20.4049 3.37349C19.438 0.717197 16.4904 -0.657228 13.8338 0.309368C13.8334 0.309504 13.833 0.309778 13.8326 0.309915L0.677162 5.05457C0.677026 5.05471 0.676752 5.05471 0.676479 5.05485C0.675795 5.05512 0.675112 5.05526 0.674291 5.05553C0.650639 5.06414 0.628217 5.0744 0.605659 5.08451C0.597046 5.08834 0.588022 5.09149 0.579546 5.09559C0.557397 5.10612 0.536343 5.11842 0.515288 5.13045C0.506675 5.13537 0.497515 5.13961 0.489039 5.14494C0.468804 5.15725 0.449937 5.17092 0.430797 5.18446C0.42232 5.19047 0.413297 5.19594 0.405094 5.20209C0.38732 5.21563 0.370778 5.23026 0.353961 5.24488C0.345485 5.2524 0.336325 5.2591 0.328122 5.26676C0.312262 5.28125 0.29777 5.29725 0.283005 5.3127C0.274938 5.32131 0.266325 5.3291 0.258532 5.33785C0.244587 5.35358 0.231872 5.37039 0.218884 5.38693C0.211501 5.39623 0.203435 5.40525 0.196462 5.41496C0.184704 5.43109 0.174314 5.44805 0.163513 5.46486C0.156541 5.4758 0.148884 5.48619 0.142322 5.49727C0.132478 5.51395 0.124002 5.53145 0.115115 5.54867C0.108963 5.56057 0.102127 5.57219 0.0963847 5.58436C0.0884551 5.60131 0.0820293 5.61881 0.07492 5.63617C0.069588 5.64943 0.0635724 5.66201 0.058924 5.67541C0.0529084 5.69236 0.04826 5.70986 0.0432014 5.72709C0.0389632 5.74131 0.0340413 5.75539 0.03035 5.76988C0.0261117 5.78683 0.0232406 5.80433 0.0198227 5.82156C0.0168149 5.8366 0.0131235 5.85164 0.0107993 5.86681C0.00806494 5.88431 0.00710791 5.90209 0.00533058 5.91972C0.00382668 5.93504 0.00150248 5.95035 0.00068217 5.9658C-0.000274855 5.98385 0.000408735 6.00189 0.000408735 6.01994C0.000408735 6.03539 -0.000411573 6.05084 0.000272017 6.06629C0.00109232 6.08461 0.00368996 6.10306 0.0054673 6.12138C0.00697119 6.13656 0.0077915 6.15187 0.00997899 6.16718C0.0127133 6.18537 0.0170883 6.20355 0.0207797 6.22173C0.0239242 6.23718 0.0262484 6.25277 0.0300765 6.26822C0.0345882 6.2864 0.041014 6.30431 0.0466194 6.32236C0.0512678 6.33726 0.0549592 6.35244 0.0602912 6.36734C0.0604279 6.36761 0.0605646 6.36802 0.0607013 6.3683C0.0608381 6.36898 0.0609748 6.36953 0.0612482 6.37021L1.46411 10.2243C1.47464 10.2533 1.48913 10.2797 1.50184 10.3071C1.51183 10.3285 1.51989 10.3512 1.53124 10.3715C1.54724 10.4004 1.56651 10.4261 1.58497 10.453C1.59659 10.4698 1.60643 10.4883 1.61901 10.5043C1.64102 10.5326 1.66618 10.5577 1.69079 10.5832C1.70227 10.5951 1.71239 10.6086 1.72442 10.6199C1.75218 10.6461 1.78266 10.6688 1.81288 10.6915C1.82382 10.6998 1.83366 10.7095 1.84487 10.7172C1.87755 10.7397 1.91255 10.7587 1.94755 10.7772C1.95794 10.7826 1.96751 10.7898 1.97803 10.7949C2.01385 10.8124 2.05145 10.826 2.08905 10.8391C2.09999 10.8429 2.11024 10.8484 2.12131 10.852C2.15987 10.8641 2.19952 10.8719 2.23944 10.8796C2.25038 10.8816 2.26104 10.8855 2.27211 10.8871C2.32325 10.8952 2.37534 10.8991 2.42784 10.8991C2.45682 10.8991 2.48594 10.8978 2.5152 10.8954C2.52121 10.8949 2.52709 10.8937 2.53311 10.8931C2.55635 10.8906 2.57946 10.8881 2.6027 10.8841C2.61336 10.8822 2.62403 10.8793 2.63469 10.8771C2.65315 10.8733 2.6716 10.8697 2.68992 10.8648C2.70947 10.8598 2.72875 10.8531 2.74817 10.8466C2.75733 10.8438 2.76649 10.8413 2.77551 10.838L2.7766 10.8376C2.77715 10.8375 2.7777 10.8372 2.77824 10.8371C2.77865 10.8369 2.77906 10.8366 2.77947 10.8365L14.9729 6.43857L29.4326 46.1651C26.8533 48.4212 25.7791 52.1159 27.0198 55.5244C28.2443 58.8883 31.4712 61.1487 35.0498 61.1487C36.0454 61.1487 37.0284 60.9747 37.9716 60.6314C40.1163 59.8507 41.8286 58.2819 42.7933 56.2133C43.3059 55.1137 43.5721 53.9433 43.5943 52.7656L69.3247 43.4087C69.3247 43.4087 69.3249 43.4087 69.325 43.4086H69.3251C69.332 43.4061 69.3383 43.4029 69.345 43.4003C69.3711 43.3901 69.3969 43.3799 69.4217 43.3679C69.4322 43.3628 69.4419 43.3566 69.4523 43.3512C69.4725 43.3406 69.4928 43.3304 69.512 43.3186C69.523 43.3118 69.5331 43.3039 69.5438 43.2969C69.5613 43.2851 69.5792 43.2738 69.5958 43.2612C69.6012 43.2571 69.6058 43.2525 69.611 43.2484C69.6321 43.2315 69.653 43.2147 69.6725 43.1965C69.6758 43.193 69.6788 43.1896 69.6821 43.1864C69.7028 43.1665 69.723 43.1464 69.742 43.125C69.7458 43.1208 69.749 43.116 69.7528 43.1116C69.7706 43.0909 69.7879 43.0698 69.8039 43.0478C69.8057 43.0455 69.8071 43.0429 69.8087 43.0404C69.8261 43.0159 69.8428 42.9911 69.8579 42.9652C69.8607 42.9606 69.8629 42.9555 69.8656 42.9507C69.8791 42.9269 69.8921 42.903 69.9037 42.8783C69.9082 42.8686 69.9118 42.8583 69.9159 42.8485C69.9247 42.8282 69.9335 42.808 69.9411 42.7872C69.9461 42.7729 69.9498 42.7581 69.9542 42.7436C69.9594 42.7268 69.9653 42.7101 69.9695 42.693C69.9758 42.6677 69.9804 42.642 69.9848 42.6163C69.9859 42.6095 69.9878 42.6029 69.9888 42.5962C70.0132 42.4327 69.9983 42.2607 69.9378 42.0943ZM40.088 7.4861L41.2563 10.6976L38.0445 11.8665L36.8756 8.65518L40.088 7.4861ZM46.1665 24.1867L47.3356 27.398L44.1228 28.5672L42.9542 25.3558L46.1665 24.1867ZM33.962 28.6283L41.0274 26.057L42.5472 30.2316C42.6935 30.6349 43.0804 30.9068 43.511 30.9068C43.63 30.9068 43.7475 30.8851 43.861 30.8439L49.0001 28.9736C49.5319 28.7809 49.8067 28.1916 49.6126 27.6598L48.093 23.4855L55.1595 20.9137L61.9414 39.5466L41.4831 46.9864C41.0989 46.5476 40.673 46.1492 40.2109 45.7988L33.962 28.6283ZM16.5507 4.77608C16.5446 4.75967 16.5371 4.74422 16.5304 4.72809C16.5237 4.71237 16.5177 4.6961 16.5103 4.68065C16.5036 4.66657 16.4957 4.65372 16.4885 4.64018C16.4794 4.62336 16.4708 4.60614 16.461 4.59001C16.4541 4.57893 16.4463 4.56881 16.4391 4.55801C16.4275 4.54051 16.4163 4.52274 16.4036 4.5062C16.397 4.49745 16.3895 4.48966 16.3826 4.48104C16.3684 4.46341 16.3543 4.44577 16.3389 4.42922C16.3327 4.42253 16.3258 4.41651 16.3193 4.40995C16.3024 4.39272 16.2856 4.3755 16.2675 4.3595C16.2623 4.35499 16.2567 4.35102 16.2515 4.34665C16.2316 4.32956 16.2113 4.31274 16.1901 4.29743C16.1871 4.29524 16.1838 4.2936 16.1808 4.29128C16.157 4.27432 16.1327 4.25819 16.1076 4.24329C16.1056 4.2422 16.1036 4.24124 16.1017 4.24028C15.9617 4.15893 15.8031 4.11095 15.639 4.10233C15.6375 4.10233 15.6362 4.10247 15.6347 4.10233C15.6029 4.10083 15.5711 4.10069 15.5389 4.1022C15.5331 4.10247 15.5272 4.10356 15.5213 4.10397C15.4937 4.10575 15.4661 4.10794 15.4385 4.11204C15.4252 4.11409 15.4121 4.11737 15.3988 4.11997C15.3786 4.12366 15.3582 4.12708 15.338 4.13214C15.315 4.13788 15.2922 4.14567 15.2693 4.15292C15.2592 4.1562 15.249 4.15866 15.2389 4.16222L15.2375 4.16276C15.2371 4.1629 15.2365 4.16304 15.236 4.16317C15.2356 4.16331 15.2352 4.16358 15.2347 4.16372L3.04129 8.56166L2.33979 6.63449L14.5317 2.23709C14.532 2.23695 14.5322 2.23682 14.5324 2.23682C14.5331 2.23654 14.5338 2.23641 14.5346 2.23613C16.1287 1.65604 17.8972 2.48072 18.4773 4.07472L33.1108 44.2803C32.7785 44.358 32.4497 44.4544 32.1258 44.5723C31.7995 44.6911 31.4864 44.8299 31.184 44.983L16.5507 4.77608ZM40.9343 55.3463C40.2012 56.9184 38.8999 58.1108 37.27 58.7041C36.5522 58.9653 35.8051 59.0978 35.0496 59.0978C32.3298 59.0978 29.8772 57.3798 28.9467 54.8228C27.722 51.4581 29.4631 47.7242 32.8279 46.4994C33.5457 46.2381 34.2927 46.1056 35.0483 46.1056C37.7679 46.1056 40.2206 47.8236 41.1511 50.3808C41.7445 52.0107 41.6675 53.7743 40.9343 55.3463ZM43.3698 50.6648C43.2919 50.3334 43.1964 50.0044 43.0782 49.6796C42.9601 49.3549 42.8226 49.0407 42.6687 48.7374L66.9583 39.9047L67.6598 41.8318L43.3698 50.6648Z" fill="#444444"/>
</svg>
