<svg width="32" height="41" viewBox="0 0 32 41" fill="none" xmlns="http://www.w3.org/2000/svg">
<path d="M30.016 0H1.984C0.889872 0 0 0.890553 0 1.984V38.8671C0 39.9605 0.889872 40.8511 1.984 40.8511H30.016C31.1101 40.8511 32 39.9605 32 38.8671V1.984C32 0.890553 31.1101 0 30.016 0ZM30.6383 38.8671C30.6383 39.2102 30.3591 39.4894 30.016 39.4894H1.984C1.64085 39.4894 1.3617 39.2102 1.3617 38.8671V1.984C1.3617 1.64085 1.64085 1.3617 1.984 1.3617H30.016C30.3591 1.3617 30.6383 1.64085 30.6383 1.984V38.8671Z" fill="white"/>
<path d="M3.40424 37.4468H10.8936V29.9574H3.40424V37.4468ZM4.76594 31.3191H9.5319V36.0851H4.76594V31.3191Z" fill="white"/>
<path d="M12.2553 37.4468H19.7447V29.9574H12.2553V37.4468ZM13.617 31.3191H18.383V36.0851H13.617V31.3191Z" fill="white"/>
<path d="M21.1064 37.4468H28.5957V21.1064H21.1064V37.4468ZM22.4681 22.4681H27.234V36.0851H22.4681V22.4681Z" fill="white"/>
<path d="M3.40424 28.5957H10.8936V21.1064H3.40424V28.5957ZM4.76594 22.4681H9.5319V27.234H4.76594V22.4681Z" fill="white"/>
<path d="M12.2553 28.5957H19.7447V21.1064H12.2553V28.5957ZM13.617 22.4681H18.383V27.234H13.617V22.4681Z" fill="white"/>
<path d="M3.40424 19.7447H10.8936V12.2553H3.40424V19.7447ZM4.76594 13.617H9.5319V18.383H4.76594V13.617Z" fill="white"/>
<path d="M12.2553 19.7447H19.7447V12.2553H12.2553V19.7447ZM13.617 13.617H18.383V18.383H13.617V13.617Z" fill="white"/>
<path d="M21.1064 19.7447H28.5957V12.2553H21.1064V19.7447ZM22.4681 13.617H27.234V18.383H22.4681V13.617Z" fill="white"/>
<path d="M3.40424 10.2128H28.5957V3.40425H3.40424V10.2128ZM4.76594 4.76595H27.234V8.85106H4.76594V4.76595Z" fill="white"/>
</svg>
