<svg width="68" height="70" viewBox="0 0 68 70" fill="none" xmlns="http://www.w3.org/2000/svg">
<path d="M56.8037 0C57.4442 0 57.9632 0.522307 57.9632 1.16691V4.66659H61.4405C64.6404 4.67033 67.2331 7.27973 67.2368 10.5001V58.3334C67.2331 61.5532 64.6404 64.1626 61.4405 64.1664H30.3143C29.1145 65.5122 27.7163 66.6642 26.1678 67.5811C26.1365 67.6036 26.118 67.6361 26.0845 67.6548C26.0468 67.6735 26.0081 67.6895 25.9688 67.7029C20.6549 70.7657 14.1264 70.7657 8.81245 67.7029C8.77266 67.6895 8.73392 67.6735 8.69624 67.6548C8.66281 67.6361 8.64424 67.6036 8.61293 67.5811C6.06741 66.0751 3.9427 63.9447 2.43671 61.3887C2.39692 61.3455 2.36137 61.299 2.33006 61.2499C2.31467 61.2232 2.31467 61.1927 2.30193 61.166C-0.767334 55.8014 -0.767334 49.1984 2.30193 43.8338C2.30883 43.8177 2.30989 43.8001 2.31838 43.7836V10.5001C2.3221 7.27973 4.91484 4.67033 8.11412 4.66659H11.5941V1.16691C11.5941 0.522307 12.1131 0 12.7536 0C13.3935 0 13.9125 0.522307 13.9125 1.16691V4.66659H33.6197V1.16691C33.6197 0.522307 34.1387 0 34.7787 0C35.4192 0 35.9381 0.522307 35.9381 1.16691V4.66659H55.6448V1.16691C55.6448 0.522307 56.1638 0 56.8037 0V0ZM4.6389 40.6417C5.34785 39.8705 6.12366 39.165 6.95731 38.5327V29.1664C6.95731 27.8778 7.99525 26.8331 9.27571 26.8331H59.1221C60.4026 26.8331 61.4405 27.8778 61.4405 29.1664V48.9997H64.9184V23.3335H4.6389V40.6417ZM26.0001 37.3156C26.0277 37.33 26.058 37.3284 26.0845 37.345C26.1111 37.361 26.1365 37.3962 26.1678 37.4187C26.7404 37.7578 27.2928 38.13 27.8235 38.5327V29.1664H19.7088V35.1735C21.9237 35.471 24.0606 36.1984 26.0001 37.3156ZM48.6891 54.8332V47.8333H40.5749V54.8332H48.6891ZM52.1669 54.8332C52.1707 51.6134 54.7634 49.004 57.9632 48.9997H59.1221V47.8333H51.008V54.8332H52.1669ZM40.5749 29.1664V36.1668H48.6891V29.1664H40.5749ZM30.1419 29.1664V36.1668H38.2565V29.1664H30.1419ZM32.3759 43.6661C32.3976 43.6976 32.43 43.7163 32.4486 43.7499C32.4672 43.7836 32.464 43.8071 32.4767 43.8338C32.7861 44.3737 33.0668 44.9296 33.3167 45.5H38.2565V38.5001H30.1419V40.6417C30.992 41.5667 31.7407 42.5803 32.3759 43.6661ZM59.1221 38.5001H51.008V45.5H59.1221V38.5001ZM48.6891 38.5001H40.5749V45.5H48.6891V38.5001ZM51.008 36.1668H59.1221V29.1664H51.008V36.1668ZM57.9632 51.333C56.0423 51.333 54.4853 52.9004 54.4853 54.8332V60.1834L63.2792 51.333H57.9632ZM38.2565 47.8333H34.1318C34.7834 50.1057 34.9453 52.4924 34.6062 54.8332H38.2565V47.8333ZM17.3904 34.9999V29.1664H9.27571V37.0336C11.7745 35.6969 14.561 34.9989 17.3904 34.9999ZM64.9184 58.3334V52.9827L56.1245 61.8331H61.4405C63.3615 61.8331 64.9184 60.2662 64.9184 58.3334ZM52.1669 61.8331V57.1665H34.1318C33.7481 58.5641 33.192 59.9073 32.4767 61.166C32.464 61.1927 32.464 61.2232 32.4486 61.2499C32.4173 61.299 32.3812 61.3455 32.3419 61.3887C32.2549 61.5383 32.1652 61.6862 32.0745 61.8331H52.1669ZM8.87825 65.0032L9.43119 64.0419C9.63708 63.6777 10.0202 63.4529 10.4362 63.4518C10.8523 63.4507 11.237 63.674 11.4439 64.0371C11.6514 64.4003 11.6493 64.8473 11.4392 65.2083L10.8921 66.1627C12.5668 66.975 14.3774 67.4647 16.2314 67.6073V66.4997C16.2314 65.8556 16.7504 65.3333 17.3904 65.3333C18.0309 65.3333 18.5498 65.8556 18.5498 66.4997V67.6073C20.4034 67.4647 22.2145 66.975 23.8892 66.1627L23.3416 65.2083C23.1315 64.8473 23.1293 64.4003 23.3368 64.0371C23.5438 63.674 23.9285 63.4507 24.3445 63.4518C24.7606 63.4529 25.1442 63.6777 25.3496 64.0419L25.9025 65.0032C27.4345 63.9431 28.7606 62.6085 29.8139 61.0667L28.8587 60.5102C28.4968 60.3035 28.2734 59.9174 28.2724 59.4987C28.2713 59.08 28.4937 58.6928 28.854 58.4845C29.2148 58.2757 29.659 58.2779 30.0177 58.4893L30.966 59.04C31.7731 57.3545 32.2597 55.5323 32.4014 53.6668H31.3008C30.6608 53.6668 30.1419 53.144 30.1419 52.4999C30.1419 51.8558 30.6608 51.333 31.3008 51.333H32.4014C32.2597 49.4675 31.7731 47.6453 30.966 45.9598L30.0177 46.5105C29.659 46.7219 29.2148 46.7241 28.854 46.5153C28.4937 46.307 28.2713 45.9198 28.2724 45.5011C28.2734 45.0824 28.4968 44.6963 28.8587 44.4896L29.8139 43.9331C28.7606 42.3913 27.4345 41.0567 25.9025 39.9966L25.3496 40.9579C25.1442 41.3221 24.7606 41.5469 24.3445 41.548C23.9285 41.5491 23.5438 41.3258 23.3368 40.9627C23.1293 40.5995 23.1315 40.1525 23.3416 39.7915L23.8892 38.8371C22.2145 38.0248 20.4034 37.5351 18.5498 37.3925V38.5001C18.5498 39.1442 18.0309 39.6665 17.3904 39.6665C16.7504 39.6665 16.2314 39.1442 16.2314 38.5001V37.3925C14.3774 37.5351 12.5668 38.0248 10.8921 38.8371L11.4392 39.7915C11.6493 40.1525 11.6514 40.5995 11.4439 40.9627C11.237 41.3258 10.8523 41.5491 10.4362 41.548C10.0202 41.5469 9.63708 41.3221 9.43119 40.9579L8.87825 39.9966C7.34627 41.0567 6.02018 42.3913 4.96685 43.9331L5.92201 44.4896C6.28392 44.6963 6.50785 45.0824 6.50838 45.5011C6.50944 45.9198 6.28763 46.307 5.92679 46.5153C5.56595 46.7241 5.1218 46.7219 4.76308 46.5105L3.81481 45.9598C3.00769 47.6453 2.52109 49.4675 2.37994 51.333H3.47997C4.11993 51.333 4.6389 51.8558 4.6389 52.4999C4.6389 53.144 4.11993 53.6668 3.47997 53.6668H2.37994C2.52109 55.5323 3.00769 57.3545 3.81481 59.04L4.76308 58.4893C5.1218 58.2779 5.56595 58.2757 5.92679 58.4845C6.28763 58.6928 6.50944 59.08 6.50838 59.4987C6.50785 59.9174 6.28392 60.3035 5.92201 60.5102L4.96685 61.0667C6.02018 62.6085 7.34627 63.9431 8.87825 65.0032ZM35.9381 6.99988V9.49873C38.1987 10.0867 39.6728 12.2742 39.3788 14.6054C39.0843 16.9365 37.1135 18.684 34.7787 18.684C32.4438 18.684 30.473 16.9365 30.179 14.6054C29.8845 12.2742 31.3586 10.0867 33.6197 9.49873V6.99988H13.9125V9.49873C16.1736 10.0867 17.6477 12.2742 17.3532 14.6054C17.0593 16.9365 15.0884 18.684 12.7536 18.684C10.4187 18.684 8.4479 16.9365 8.15339 14.6054C7.85941 12.2742 9.33355 10.0867 11.5941 9.49873V6.99988H8.11678C6.19583 6.99988 4.6389 8.5668 4.6389 10.5001V21.0002H64.9184V10.5001C64.9184 8.5668 63.3615 6.99988 61.4405 6.99988H57.9632V9.49873C60.2238 10.0867 61.6979 12.2742 61.4039 14.6054C61.1094 16.9365 59.1386 18.684 56.8037 18.684C54.4689 18.684 52.4981 16.9365 52.2041 14.6054C51.9096 12.2742 53.3837 10.0867 55.6448 9.49873V6.99988H35.9381ZM34.7787 13.9998C34.1387 13.9998 33.6197 13.4775 33.6197 12.8334V11.9912C32.7107 12.5188 32.2676 13.5955 32.5393 14.6155C32.811 15.6356 33.7296 16.3448 34.7787 16.3448C35.8283 16.3448 36.7463 15.6356 37.018 14.6155C37.2897 13.5955 36.8466 12.5188 35.9381 11.9912V12.8334C35.9381 13.4775 35.4192 13.9998 34.7787 13.9998ZM12.7536 13.9998C12.1131 13.9998 11.5941 13.4775 11.5941 12.8334V11.9912C10.6856 12.5188 10.2425 13.5955 10.5142 14.6155C10.7859 15.6356 11.704 16.3448 12.7536 16.3448C13.8027 16.3448 14.7212 15.6356 14.9929 14.6155C15.2646 13.5955 14.8215 12.5188 13.9125 11.9912V12.8334C13.9125 13.4775 13.3935 13.9998 12.7536 13.9998ZM56.8037 13.9998C56.1638 13.9998 55.6448 13.4775 55.6448 12.8334V11.9912C54.7358 12.5188 54.2927 13.5955 54.5644 14.6155C54.8361 15.6356 55.7547 16.3448 56.8037 16.3448C57.8534 16.3448 58.7719 15.6356 59.0431 14.6155C59.3148 13.5955 58.8717 12.5188 57.9632 11.9912V12.8334C57.9632 13.4775 57.4442 13.9998 56.8037 13.9998Z" fill="#FF8400"/>
<path d="M14.3515 54.218C14.1166 53.757 13.9936 53.2507 13.9914 52.7376C13.998 51.2783 14.9574 49.9798 16.3899 49.493V43.5208C16.3899 42.8842 16.9267 42.3684 17.5886 42.3684C18.2511 42.3684 18.7878 42.8842 18.7878 43.5208V49.493C20.4382 50.0521 21.4284 51.6728 21.132 53.3298C20.8356 54.9869 19.3383 56.1973 17.5886 56.1941C17.0546 56.192 16.5277 56.0739 16.048 55.8482L11.2423 60.4661C10.7719 60.9027 10.0244 60.8964 9.56168 60.4518C9.099 60.0077 9.09296 59.2889 9.54686 58.8369L14.3515 54.218ZM18.7878 52.7376C18.7873 52.2181 18.4245 51.7629 17.9025 51.6269C17.3806 51.4908 16.8284 51.707 16.5546 52.1553C16.2807 52.6036 16.3531 53.1727 16.7313 53.544H16.7494L16.7587 53.5577C17.104 53.8757 17.6128 53.9664 18.0535 53.7881C18.4948 53.6099 18.7829 53.1969 18.7878 52.7376Z" fill="#FF8400"/>
</svg>
