<svg width="32" height="30" viewBox="0 0 32 30" fill="none" xmlns="http://www.w3.org/2000/svg">
<path fill-rule="evenodd" clip-rule="evenodd" d="M20 0.853516C18.4361 0.300751 16.7532 0 15 0C6.71573 0 0 6.71573 0 15C0 23.2843 6.71573 30 15 30C23.2843 30 30 23.2843 30 15C30 14.664 29.989 14.3305 29.9672 14H26.9589C26.9861 14.3297 27 14.6632 27 15C27 21.6274 21.6274 27 15 27C8.37259 27 3 21.6274 3 15C3 8.37259 8.37259 3 15 3C16.7844 3 18.4779 3.38947 20 4.08807V0.853516Z" fill="white"/>
<path d="M10.5 13L15 17.5L30 3" stroke="#FF8400" stroke-width="3" stroke-linecap="round"/>
</svg>
