<svg width="70" height="70" viewBox="0 0 70 70" fill="none" xmlns="http://www.w3.org/2000/svg">
<path d="M2.76323 48.6281C3.03147 49.1923 3.6983 49.4461 4.27662 49.2046C4.8544 48.9626 5.13873 48.3108 4.92199 47.7247C4.08778 45.7464 3.44723 43.6928 3.0084 41.5917C2.11893 37.251 2.11893 32.7756 3.0084 28.4344C4.74442 20.0607 9.70571 12.6978 16.8279 7.92332C20.3686 5.52618 24.3519 3.85241 28.5471 2.99816C32.907 2.11666 37.4005 2.11666 41.761 2.99816C43.8682 3.43517 45.9294 4.07251 47.9148 4.90165C48.5205 5.16183 49.1031 5.4375 49.6723 5.71851L47.0554 9.88505C46.8376 10.2291 46.8151 10.6613 46.9959 11.0256C47.1772 11.3905 47.5361 11.6347 47.9427 11.6705L60.8341 12.8378H60.9409C61.3733 12.8378 61.7703 12.6006 61.9742 12.2213C62.178 11.8414 62.1555 11.3809 61.9157 11.023L54.8841 0.519283C54.6594 0.19393 54.2881 -0.000533108 53.8917 1.09778e-06C53.4936 0.00587777 53.1261 0.212629 52.9153 0.548666L50.9185 3.73434C50.2469 3.39617 49.5564 3.06494 48.8311 2.75294C46.7046 1.86396 44.497 1.18067 42.239 0.712143C37.5658 -0.233462 32.7493 -0.233462 28.0761 0.712143C21.3429 2.10651 15.1654 5.42895 10.3012 10.2702C7.10061 13.4693 4.54217 17.2469 2.76323 21.4006C1.87162 23.5173 1.186 25.7135 0.714983 27.9605C-0.238328 32.6138 -0.238328 37.4112 0.714983 42.0645C1.18547 44.3125 1.87162 46.5104 2.76323 48.6281ZM53.941 3.31817L58.6062 10.2879L50.0511 9.51268L52.3643 5.83551V5.82856L53.941 3.31817Z" fill="#FF8400"/>
<path d="M67.2368 21.4066C66.9815 20.821 66.2996 20.5482 65.7079 20.7953C65.1168 21.0425 64.8346 21.7173 65.076 22.3094C65.9096 24.2862 66.5507 26.3384 66.9895 28.4375C67.8784 32.7756 67.8784 37.2477 66.9895 41.5858C65.2535 49.9529 60.294 57.3105 53.1725 62.0821C49.6319 64.4775 45.6487 66.1501 41.4536 67.0037C37.0938 67.8846 32.6004 67.8846 28.24 67.0037C26.1328 66.5665 24.0717 65.9296 22.0863 65.1016C21.4807 64.8416 20.8981 64.5662 20.3289 64.2853L22.9441 60.1207C23.1603 59.7769 23.1812 59.3466 23.0004 58.9842C22.8197 58.6211 22.4624 58.3777 22.0573 58.3409L9.16624 57.1744C8.71669 57.1338 8.28323 57.3532 8.05201 57.7397C7.82134 58.1257 7.83368 58.6094 8.08474 58.9836L15.1161 69.4792C15.3334 69.8043 15.6998 69.9997 16.0919 69.9997H16.1096C16.5077 69.9939 16.8752 69.7873 17.086 69.4515L19.0784 66.2702C19.7495 66.6081 20.4399 66.9397 21.1652 67.2509C23.2923 68.1382 25.4998 68.8204 27.7572 69.2881C32.4298 70.2373 37.2472 70.2373 41.9197 69.2881C48.6544 67.8953 54.8339 64.5758 59.6991 59.7369C62.8996 56.5402 65.4579 52.7653 67.2368 48.6146C68.1284 46.4978 68.8146 44.301 69.285 42.0545C70.2383 37.4047 70.2383 32.6106 69.285 27.9608C68.814 25.7159 68.1279 23.5212 67.2368 21.4066ZM16.0603 66.684L11.3952 59.7193L19.9501 60.4939L17.6369 64.1684V64.1754L16.0603 66.684Z" fill="#FF8400"/>
<path d="M57.811 31.0965C57.811 31.0557 57.82 31.0186 57.811 30.9804C57.802 30.9422 57.7855 30.9247 57.7776 30.895C57.3136 28.3064 56.408 25.8164 55.1004 23.5347C55.0903 23.4955 55.0776 23.4568 55.0622 23.4191C55.033 23.3778 55.0002 23.339 54.9652 23.303C53.6433 21.05 51.9529 19.035 49.9634 17.3425C49.9406 17.3107 49.9162 17.2799 49.8902 17.2508C49.8696 17.2333 49.8441 17.2301 49.8218 17.2136C47.7995 15.5328 45.5057 14.2087 43.039 13.2983C43.0013 13.2729 42.9626 13.249 42.9229 13.2278C42.8799 13.2188 42.837 13.2124 42.7935 13.2082C37.7604 11.3719 32.2406 11.3719 27.2081 13.2082C27.1641 13.2119 27.1201 13.2182 27.0771 13.2278C27.0368 13.249 26.9987 13.2729 26.961 13.2983C24.4943 14.2087 22.2005 15.5328 20.1782 17.2136C20.1559 17.2301 20.1294 17.2333 20.1098 17.2508C20.0838 17.2799 20.0594 17.3107 20.0366 17.3425C18.0477 19.035 16.3573 21.05 15.0364 23.303C15.0004 23.339 14.9675 23.3778 14.9378 23.4191C14.9224 23.4568 14.9097 23.4955 14.8996 23.5347C13.5915 25.8169 12.6853 28.3069 12.2203 30.8961C12.2076 30.9242 12.1959 30.9534 12.1869 30.9831C12.1795 31.0223 12.1928 31.0594 12.1869 31.0987C11.7124 33.681 11.7124 36.3279 12.1869 38.9108C12.1869 38.9511 12.1774 38.9882 12.1869 39.0264C12.1965 39.0592 12.2081 39.0911 12.2214 39.1223C12.688 41.7068 13.5936 44.1915 14.8996 46.47C14.9097 46.5092 14.9224 46.5479 14.9378 46.5855C14.9786 46.6524 15.0264 46.7144 15.0804 46.7711C16.3949 48.9939 18.0699 50.9834 20.0366 52.6579C20.0594 52.6897 20.0838 52.72 20.1098 52.7491C20.1315 52.7677 20.1607 52.7746 20.184 52.7921C22.2048 54.4703 24.497 55.7922 26.961 56.7016C26.9987 56.727 27.0368 56.7509 27.0771 56.7721C27.1259 56.7838 27.1752 56.7928 27.2251 56.7986C32.2475 58.6258 37.7525 58.6258 42.7749 56.7986C42.8248 56.7928 42.8741 56.7838 42.9229 56.7721C42.9626 56.7509 43.0013 56.727 43.039 56.7016C45.503 55.7917 47.7947 54.4698 49.816 52.7921C49.8393 52.7746 49.8685 52.7677 49.8902 52.7491C49.9162 52.72 49.9406 52.6897 49.9634 52.6579C51.9311 50.9839 53.6072 48.9944 54.9233 46.7711C54.9758 46.7144 55.0224 46.6524 55.0622 46.5855C55.0776 46.5479 55.0903 46.5092 55.1004 46.47C56.4069 44.1904 57.3125 41.7036 57.7786 39.1181C57.7919 39.0863 57.8036 39.0545 57.8131 39.0216C57.82 38.9824 57.8073 38.9452 57.8131 38.906C58.2877 36.3237 58.2877 33.6762 57.8131 31.0939L57.811 31.0965ZM49.2476 50.1822L48.5434 49.3428C48.2804 49.0146 47.8605 48.8545 47.4464 48.9239C47.0317 48.9939 46.6876 49.2829 46.5471 49.6795C46.4066 50.0756 46.4919 50.5168 46.7698 50.8323L47.4729 51.6695C46.1547 52.6675 44.722 53.5047 43.2055 54.1638L42.8221 53.1107C42.592 52.5269 41.9387 52.2321 41.3486 52.4469C40.759 52.6611 40.4472 53.3064 40.6455 53.9019L41.0288 54.956C39.4445 55.4279 37.8092 55.7095 36.1586 55.7933V54.6941C36.1586 54.0546 35.6395 53.536 35 53.536C34.3605 53.536 33.8414 54.0546 33.8414 54.6941V55.7933C32.1903 55.7095 30.5545 55.4279 28.9696 54.956L29.3529 53.9019C29.5078 53.51 29.4372 53.0651 29.1689 52.7401C28.9012 52.4151 28.478 52.2613 28.0639 52.3382C27.6498 52.4151 27.3099 52.7109 27.1768 53.1107L26.7935 54.1638C25.277 53.5047 23.8443 52.6675 22.5261 51.6695L23.2292 50.8323C23.507 50.5168 23.5924 50.0756 23.4519 49.6795C23.3114 49.2829 22.9672 48.9939 22.5526 48.9239C22.138 48.8545 21.7185 49.0146 21.4555 49.3428L20.7514 50.1822C19.5451 49.0528 18.4756 47.785 17.5662 46.4053L18.5249 45.8512C18.8865 45.646 19.1097 45.2626 19.1108 44.8469C19.1119 44.4312 18.8897 44.0467 18.5297 43.8399C18.1691 43.6331 17.7253 43.6347 17.3668 43.8452L16.4124 44.3978C15.6637 42.9221 15.0948 41.3621 14.7178 39.7517L15.809 39.5593C16.4389 39.4479 16.8594 38.8466 16.7481 38.2167C16.6367 37.5867 16.0359 37.1657 15.4055 37.2771L14.31 37.4706C14.0968 35.8295 14.0968 34.1683 14.31 32.5271L15.4055 32.7202C15.4728 32.7318 15.5407 32.7376 15.6086 32.7376C16.2093 32.7382 16.7109 32.2785 16.7629 31.6798C16.8149 31.0812 16.4007 30.5419 15.809 30.4385L14.7178 30.2529C15.0953 28.6436 15.6642 27.0847 16.4124 25.6106L17.3668 26.1631C17.7253 26.3731 18.1691 26.3752 18.5297 26.1684C18.8897 25.9611 19.1119 25.5767 19.1108 25.161C19.1097 24.7458 18.8865 24.3624 18.5249 24.1567L17.5662 23.6031C18.4761 22.2239 19.5456 20.9567 20.7524 19.8283L21.4566 20.6677C21.7196 20.9959 22.1395 21.156 22.5537 21.086C22.9683 21.0166 23.3124 20.7271 23.4529 20.331C23.5935 19.9349 23.5081 19.4937 23.2302 19.1782L22.5271 18.341C23.8453 17.343 25.278 16.5058 26.7945 15.8467L27.1779 16.8997C27.311 17.2995 27.6509 17.5954 28.065 17.6723C28.4791 17.7492 28.9022 17.5954 29.1705 17.2704C29.4383 16.9453 29.5088 16.5005 29.3545 16.1086L28.9706 15.0545C30.555 14.5804 32.1903 14.2973 33.8414 14.2114V15.3106C33.8414 15.9501 34.3605 16.4687 35 16.4687C35.6395 16.4687 36.1586 15.9501 36.1586 15.3106V14.2114C37.8098 14.2952 39.4455 14.5762 41.0304 15.0487L40.6471 16.1028C40.4922 16.4946 40.5628 16.9395 40.8311 17.2646C41.0988 17.5896 41.522 17.7434 41.9361 17.6665C42.3502 17.5896 42.6901 17.2937 42.8232 16.8939L43.2065 15.8408C44.723 16.4999 46.1557 17.3372 47.4739 18.3351L46.7708 19.1724C46.493 19.4879 46.4076 19.929 46.5481 20.3251C46.6886 20.7218 47.0328 21.0107 47.4474 21.0807C47.8615 21.1502 48.2815 20.9901 48.5445 20.6618L49.2476 19.8283C50.4539 20.9577 51.5234 22.2255 52.4327 23.6052L51.4735 24.1593C51.1124 24.3645 50.8887 24.7479 50.8881 25.1636C50.8871 25.5793 51.1087 25.9632 51.4693 26.1706C51.8299 26.3774 52.2737 26.3758 52.6321 26.1653L53.5865 25.6127C54.3347 27.0863 54.9042 28.6442 55.2823 30.2529L54.191 30.4454C53.5993 30.5493 53.1852 31.0881 53.2371 31.6867C53.2891 32.2859 53.7907 32.7451 54.3914 32.7445C54.4593 32.7445 54.5272 32.7387 54.5945 32.7276L55.69 32.534C55.9032 34.1751 55.9032 35.8364 55.69 37.4775L54.5945 37.2845C54.1868 37.2124 53.7716 37.363 53.5054 37.6801C53.2392 37.9972 53.1623 38.432 53.3039 38.8212C53.4455 39.2104 53.7838 39.494 54.191 39.5662L55.2823 39.7586C54.9047 41.3679 54.3358 42.9268 53.5876 44.4009L52.6332 43.8484C52.2747 43.6384 51.8309 43.6363 51.4704 43.8436C51.1103 44.0504 50.8881 44.4349 50.8892 44.8506C50.8903 45.2663 51.1135 45.6491 51.4751 45.8549L52.4338 46.4084C51.5239 47.7871 50.4544 49.0538 49.2476 50.1822Z" fill="#FF8400"/>
<path d="M47.1125 33.81H38.5129C38.1507 32.8278 37.3528 32.0547 36.3391 31.7038V19.892C36.3391 19.2517 35.8026 18.7324 35.1417 18.7324C34.4808 18.7324 33.9444 19.2517 33.9444 19.892V31.7038C32.3689 32.2406 31.3847 33.7612 31.5721 35.3694C31.7601 36.9776 33.0698 38.2465 34.7296 38.4286C36.3895 38.6102 37.9589 37.6567 38.5129 36.1302H47.1125C47.7739 36.1302 48.3099 35.6104 48.3099 34.9701C48.3099 34.3298 47.7739 33.81 47.1125 33.81ZM35.1417 36.1302C34.4808 36.1302 33.9444 35.6104 33.9444 34.9701C33.9444 34.3298 34.4808 33.81 35.1417 33.81C35.8026 33.81 36.3391 34.3298 36.3391 34.9701C36.3391 35.6104 35.8026 36.1302 35.1417 36.1302Z" fill="#FF8400"/>
</svg>
