<svg width="66" height="70" viewBox="0 0 66 70" fill="none" xmlns="http://www.w3.org/2000/svg">
<path d="M15.9481 58.7834H13.8901V57.632L15.2587 56.125C16.0389 55.2656 16.4686 54.1531 16.4686 52.9925V49.2614C16.4686 46.5251 14.2424 44.2991 11.5063 44.2991H9.32998C6.59368 44.2991 4.36762 46.5253 4.36762 49.2614V52.9924C4.36762 54.1531 4.79733 55.2656 5.57759 56.1249L6.94615 57.6319V58.7831H4.88798C2.1927 58.7831 0 60.9759 0 63.6711V68.9511C0 69.5304 0.469493 69.9999 1.04877 69.9999H19.7876C20.3668 69.9999 20.8364 69.5306 20.8364 68.9511V63.6713C20.8361 60.9761 18.6434 58.7834 15.9481 58.7834ZM18.7386 67.9025H2.09727V63.6713C2.09727 62.1326 3.34907 60.8809 4.8877 60.8809H7.99464C8.57378 60.8809 9.04342 60.4115 9.04342 59.8321V57.19C9.04342 56.8362 8.86828 56.5233 8.5999 56.3334L7.13031 54.7149C6.70128 54.2424 6.46503 53.6306 6.46503 52.9924V49.2614C6.46503 47.6818 7.75019 46.3965 9.32998 46.3965H11.5061C13.0858 46.3965 14.3711 47.6816 14.3711 49.2614V52.9924C14.3711 53.6306 14.1348 54.2424 13.7058 54.7149L12.2363 56.3335C11.968 56.5234 11.7928 56.8363 11.7928 57.1902V59.8323C11.7928 60.4115 12.2623 60.881 12.8416 60.881H15.9484C17.4872 60.881 18.7388 62.1328 18.7388 63.6715V67.9025H18.7386Z" fill="#444444"/>
<path d="M60.5963 14.4844H58.5383V13.333L59.9069 11.8261C60.6871 10.9666 61.1168 9.85416 61.1168 8.69355V4.96249C61.1167 2.22633 58.8905 0 56.1543 0H53.9782C51.2419 0 49.0158 2.22633 49.0158 4.96249V8.69341C49.0158 9.85402 49.4455 10.9665 50.2258 11.8259L51.5943 13.3328V14.4843H49.5362C46.8409 14.4843 44.6482 16.6771 44.6482 19.3723V24.6521C44.6482 25.2314 45.1178 25.7008 45.697 25.7008H64.4358C65.0149 25.7008 65.4846 25.2315 65.4846 24.6521V19.3724C65.4843 16.6773 63.2916 14.4844 60.5963 14.4844ZM46.7456 23.6034V19.3724C46.7456 17.8336 47.9974 16.582 49.536 16.582H52.6428C53.222 16.582 53.6916 16.1126 53.6916 15.5332V12.8908C53.6916 12.537 53.5163 12.224 53.2481 12.0341L51.7786 10.4157C51.3495 9.94302 51.1132 9.33134 51.1132 8.69314V4.96249C51.1132 3.3827 52.3984 2.09741 53.9782 2.09741H56.1543C57.734 2.09741 59.0193 3.38256 59.0193 4.96249V8.69341C59.0193 9.33162 58.7829 9.94343 58.354 10.4159L56.8845 12.0344C56.6162 12.2243 56.441 12.5373 56.441 12.8911V15.5333C56.441 16.1126 56.9105 16.5821 57.4898 16.5821H60.5966C62.1354 16.5821 63.387 17.8339 63.387 19.3725V23.6036H46.7456V23.6034Z" fill="#444444"/>
<path d="M44.4007 12.4681L39.7825 7.84983C39.3729 7.44036 38.7088 7.44036 38.2994 7.84983C37.8898 8.25958 37.8898 8.92348 38.2994 9.33309L41.1274 12.1611H10.436C9.8569 12.1611 9.38727 12.6305 9.38727 13.2099V16.4117C9.38727 16.991 9.85676 17.4605 10.436 17.4605C11.0153 17.4605 11.4848 16.9911 11.4848 16.4117V14.2585H41.1273L38.2994 17.0864C37.8898 17.4962 37.8898 18.1601 38.2994 18.5697C38.504 18.7744 38.7726 18.8768 39.0409 18.8768C39.3093 18.8768 39.5777 18.7744 39.7825 18.5697L44.4007 13.9516C44.5975 13.7549 44.7079 13.4883 44.7079 13.2099C44.7079 12.9315 44.5975 12.6651 44.4007 12.4681Z" fill="#444444"/>
<path d="M10.436 20.0774C9.8569 20.0774 9.38727 20.5467 9.38727 21.1262V39.4298C9.38727 40.0091 9.85676 40.4786 10.436 40.4786C11.0153 40.4786 11.4848 40.0092 11.4848 39.4298V21.126C11.4848 20.5467 11.0153 20.0774 10.436 20.0774Z" fill="#444444"/>
<path d="M55.0191 27.6855C54.44 27.6855 53.9704 28.1549 53.9704 28.7343V56.7442H23.7765L26.6046 53.9162C27.0142 53.5064 27.0142 52.8425 26.6046 52.4329C26.195 52.0234 25.5309 52.0234 25.1214 52.4329L20.5032 57.0511C20.0936 57.4609 20.0936 58.1248 20.5032 58.5344L25.1214 63.1526C25.3261 63.3573 25.5946 63.4597 25.863 63.4597C26.1314 63.4597 26.3998 63.3573 26.6046 63.1526C27.0142 62.7429 27.0142 62.079 26.6046 61.6694L23.7765 58.8415H55.0191C55.5983 58.8415 56.0679 58.3721 56.0679 57.7927V28.7343C56.0679 28.155 55.5983 27.6855 55.0191 27.6855Z" fill="#444444"/>
<path d="M39.6965 30.154C39.5942 27.4615 37.4049 25.2723 34.7124 25.1699C33.2868 25.116 31.9378 25.6295 30.9127 26.6166C29.887 27.6041 29.3223 28.9318 29.3223 30.3551C29.3223 30.9343 29.7919 31.4038 30.371 31.4038C30.9502 31.4038 31.4198 30.9345 31.4198 30.3551C31.4198 29.5071 31.7564 28.7159 32.3674 28.1275C32.9781 27.5395 33.7812 27.2331 34.6327 27.2658C36.2359 27.3269 37.5395 28.6304 37.6003 30.2335C37.6554 31.6832 36.719 32.9601 35.3235 33.339C34.2277 33.6365 33.4622 34.6393 33.4622 35.7773V38.4155C33.4622 38.9947 33.9319 39.4642 34.511 39.4642C35.0902 39.4642 35.5598 38.9949 35.5598 38.4155V35.7773C35.5598 35.5835 35.6886 35.4133 35.8731 35.3632C38.2166 34.7272 39.7888 32.585 39.6965 30.154Z" fill="#444444"/>
<path d="M34.5112 40.0071C33.3006 40.0071 32.3159 40.9917 32.3159 42.2024C32.3159 43.4128 33.3005 44.3977 34.5112 44.3977C35.7218 44.3977 36.7065 43.4129 36.7065 42.2024C36.7065 40.992 35.7217 40.0071 34.5112 40.0071ZM34.5113 42.3003C34.4573 42.3003 34.4135 42.2565 34.4135 42.2025C34.4135 42.1485 34.4573 42.1046 34.5113 42.1046C34.5653 42.1046 34.609 42.1485 34.609 42.2025C34.609 42.2565 34.5653 42.3003 34.5113 42.3003Z" fill="#444444"/>
</svg>
