<svg width="57" height="70" viewBox="0 0 57 70" fill="none" xmlns="http://www.w3.org/2000/svg">
<path d="M56.5021 13.8644L42.9199 0.370371C42.6813 0.133301 42.3574 0 42.0197 0H1.27332C0.570125 0 0 0.566289 0 1.26506V68.7349C0 69.4337 0.570125 70 1.27332 70H55.6017C56.3049 70 56.875 69.4337 56.875 68.7349V14.7591C56.8751 14.4236 56.741 14.1019 56.5021 13.8644ZM43.293 4.31908L52.5278 13.494H43.293V4.31908ZM54.3285 67.4699H2.54664V2.53012H40.7462V14.7591C40.7462 15.4578 41.3164 16.0241 42.0196 16.0241H54.3284V67.4699H54.3285Z" fill="#FF8400"/>
<path d="M21.4376 17.8684H21.875V23.2566C21.875 23.9434 22.4627 24.5 23.1875 24.5H33.6875C34.4123 24.5 35 23.9434 35 23.2566V17.8684H35.4374C35.9684 17.8684 36.4468 17.5655 36.6501 17.1008C36.8532 16.6362 36.7409 16.1015 36.3655 15.7456L29.3656 9.11404C28.853 8.62865 28.0219 8.62865 27.5095 9.11404L24.5 11.9651V11.6513C24.5 10.9645 23.9123 10.4079 23.1875 10.4079C22.4627 10.4079 21.875 10.9645 21.875 11.6513V14.4519L20.5095 15.7457C20.1341 16.1016 20.0218 16.6362 20.2249 17.101C20.428 17.5655 20.9065 17.8684 21.4376 17.8684ZM28.4375 11.7518L32.7079 15.7975C32.501 16.0176 32.375 16.3075 32.375 16.6251V22.0133H24.5V16.6251C24.5 16.3075 24.3742 16.0177 24.1671 15.7976L28.4375 11.7518Z" fill="#FF8400"/>
<path d="M10.5 31.9375C10.5 32.6625 11.059 33.25 11.7485 33.25H43.3765C44.066 33.25 44.625 32.6625 44.625 31.9375C44.625 31.2125 44.066 30.625 43.3765 30.625H11.7485C11.059 30.625 10.5 31.2125 10.5 31.9375Z" fill="#FF8400"/>
<path d="M10.5 36.3125C10.5 37.0375 11.0603 37.625 11.7515 37.625H45.1235C45.8147 37.625 46.375 37.0375 46.375 36.3125C46.375 35.5875 45.8147 35 45.1235 35H11.7516C11.0603 35 10.5 35.5875 10.5 36.3125Z" fill="#FF8400"/>
<path d="M11.7554 42.875H28.4946C29.1879 42.875 29.75 42.2875 29.75 41.5625C29.75 40.8375 29.1879 40.25 28.4946 40.25H11.7554C11.0621 40.25 10.5 40.8375 10.5 41.5625C10.4999 42.2876 11.062 42.875 11.7554 42.875Z" fill="#FF8400"/>
<path d="M11.7485 49.875H43.3765C44.066 49.875 44.625 49.2875 44.625 48.5625C44.625 47.8375 44.066 47.25 43.3765 47.25H11.7485C11.059 47.25 10.5 47.8375 10.5 48.5625C10.5 49.2875 11.0589 49.875 11.7485 49.875Z" fill="#FF8400"/>
<path d="M45.1234 52.5H11.7515C11.0603 52.5 10.5 53.0875 10.5 53.8125C10.5 54.5375 11.0603 55.125 11.7515 55.125H45.1235C45.8147 55.125 46.375 54.5375 46.375 53.8125C46.375 53.0874 45.8147 52.5 45.1234 52.5Z" fill="#FF8400"/>
<path d="M28.4946 57.75H11.7554C11.0621 57.75 10.5 58.1417 10.5 58.625C10.5 59.1083 11.0621 59.5 11.7554 59.5H28.4946C29.1879 59.5 29.75 59.1083 29.75 58.625C29.75 58.1417 29.1879 57.75 28.4946 57.75Z" fill="#FF8400"/>
</svg>
