<svg width="70" height="70" viewBox="0 0 70 70" fill="none" xmlns="http://www.w3.org/2000/svg">
<path d="M46.7945 44.8605C46.2606 44.3266 45.3947 44.3269 44.8608 44.8608C40.7859 48.9357 34.737 50.0886 29.45 47.7976C28.7576 47.4977 27.9523 47.8158 27.6521 48.5086C27.3518 49.2013 27.6701 50.0064 28.363 50.3065C30.4685 51.2189 32.716 51.6818 34.9858 51.6818C35.9879 51.6818 36.9943 51.5916 37.9947 51.4099C41.3394 50.8023 44.3823 49.2061 46.7945 46.794C47.3283 46.2601 47.3283 45.3944 46.7945 44.8605Z" fill="#444444"/>
<path d="M25.1862 44.91C25.1716 44.894 25.1545 44.8761 25.1392 44.8608C24.6053 44.327 23.7396 44.327 23.2057 44.8608C22.6774 45.389 22.6719 46.2422 23.189 46.7773C23.4563 47.0556 23.815 47.1969 24.1749 47.1969C24.503 47.1969 24.8322 47.0794 25.0942 46.8413C25.6529 46.3334 25.6941 45.4686 25.1862 44.91Z" fill="#444444"/>
<path d="M35 12.438C22.5591 12.438 12.4379 22.5593 12.4379 35.0001C12.4379 47.441 22.5591 57.5623 35 57.5623C47.4409 57.5623 57.5621 47.441 57.5621 35.0001C57.5621 22.5593 47.4409 12.438 35 12.438ZM35 54.8279C24.0669 54.8279 15.1722 45.9331 15.1722 35.0001C15.1722 24.0671 24.0669 15.1724 35 15.1724C39.7678 15.1724 44.1476 16.8643 47.5714 19.6786L40.288 23.2429C40.1525 23.3092 40.0289 23.3974 39.9223 23.5041L31.713 31.7133C31.6929 31.7334 31.675 31.7548 31.6565 31.7759C30.8495 32.6122 30.3516 33.7488 30.3516 35.0001C30.3516 37.5633 32.4368 39.6486 35 39.6486C36.2512 39.6486 37.3878 39.1506 38.2244 38.3437C38.2454 38.3251 38.2669 38.3072 38.287 38.2871L46.4961 30.0779C46.6028 29.9712 46.6911 29.8476 46.7574 29.7121L50.3217 22.4287C53.136 25.8526 54.8279 30.2323 54.8279 35.0001C54.8278 45.9333 45.9331 54.8279 35 54.8279ZM36.6413 30.6519L41.6946 25.5987L46.9954 23.0046L44.4013 28.3054L39.3482 33.3588C38.8768 32.1141 37.886 31.1233 36.6413 30.6519ZM36.9141 35.0001C36.9141 36.0556 36.0555 36.9142 35 36.9142C33.9445 36.9142 33.0859 36.0556 33.0859 35.0001C33.0859 33.9447 33.9445 33.0861 35 33.0861C36.0555 33.0861 36.9141 33.9447 36.9141 35.0001Z" fill="#444444"/>
<path d="M68.6328 27.6172H64.2574C63.5418 24.7689 62.4184 22.0586 60.9071 19.5338L64.0026 16.4384C64.5364 15.9045 64.5364 15.0388 64.0026 14.5048L55.4951 5.9973C54.9612 5.46342 54.0955 5.46342 53.5615 5.9973L50.466 9.09275C47.9414 7.5816 45.2311 6.45818 42.3828 5.7426V1.36719C42.3828 0.61209 41.7707 0 41.0156 0H28.9844C28.2293 0 27.6172 0.61209 27.6172 1.36719V5.7426C24.7689 6.45818 22.0586 7.58147 19.5338 9.09289L16.4384 5.99744C15.9045 5.46355 15.0388 5.46355 14.5048 5.99744L5.9973 14.5049C5.74096 14.7613 5.59686 15.1091 5.59686 15.4716C5.59686 15.8342 5.74096 16.182 5.9973 16.4384L9.09275 19.5338C7.58188 22.0583 6.45832 24.7689 5.7426 27.6172H1.36719C0.61209 27.6172 0 28.2293 0 28.9844V41.0156C0 41.7707 0.61209 42.3828 1.36719 42.3828H5.7426C6.45818 45.2311 7.58174 47.9417 9.09303 50.4662L5.99758 53.5616C5.74123 53.818 5.59713 54.1658 5.59713 54.5284C5.59713 54.8909 5.74123 55.2388 5.99758 55.4951L14.505 64.0026C14.7614 64.2589 15.1092 64.403 15.4718 64.403C15.8344 64.403 16.1822 64.2589 16.4385 64.0026L19.534 60.9071C22.0586 62.4185 24.7689 63.5418 27.6173 64.2575V68.6328C27.6173 69.3879 28.2294 70 28.9845 70H41.0158C41.7709 70 42.3829 69.3879 42.3829 68.6328V64.2574C45.2312 63.5418 47.9418 62.4183 50.4663 60.907L53.5618 64.0024C53.8181 64.2588 54.1659 64.4029 54.5285 64.4029C54.8911 64.4029 55.2388 64.2588 55.4952 64.0024L64.0027 55.495C64.5366 54.9611 64.5366 54.0954 64.0027 53.5613L60.9072 50.4659C62.4187 47.9412 63.542 45.2309 64.2575 42.3825H68.6328C69.3879 42.3825 70 41.7704 70 41.0154V28.9841C70 28.2293 69.3879 27.6172 68.6328 27.6172ZM67.2656 39.6484H63.171C62.5254 39.6484 61.9679 40.1 61.8337 40.7314C61.1369 44.0099 59.8557 47.1015 58.0255 49.92C57.6738 50.4614 57.7489 51.1749 58.2053 51.6313L61.1022 54.5282L54.5284 61.1021L51.6316 58.2051C51.1752 57.7488 50.4617 57.6734 49.9201 58.0252C47.1018 59.8555 44.0103 61.1367 40.7315 61.8335C40.1 61.9678 39.6486 62.5253 39.6486 63.1709V67.2656H30.3517V63.171C30.3517 62.5254 29.9001 61.9679 29.2688 61.8337C25.9901 61.1369 22.8986 59.8556 20.0802 58.0254C19.5387 57.6738 18.8252 57.7488 18.3687 58.2053L15.4719 61.1022L8.89807 54.5284L11.795 51.6316C12.2515 51.1751 12.3264 50.4615 11.9749 49.9201C10.1447 47.1018 8.86348 44.0103 8.16662 40.7315C8.03236 40.1 7.47482 39.6486 6.82924 39.6486H2.73438V30.3517H6.82897C7.47455 30.3517 8.03209 29.9001 8.16635 29.2688C8.8632 25.99 10.1444 22.8985 11.9746 20.0802C12.3262 19.5387 12.2512 18.8252 11.7947 18.3687L8.89779 15.4719L15.4716 8.89807L18.3686 11.795C18.8249 12.2514 19.5385 12.3266 20.0799 11.9748C22.8985 10.1445 25.99 8.8632 29.2685 8.16662C29.9 8.0325 30.3514 7.47482 30.3514 6.82924V2.73438H39.6483V6.82897C39.6483 7.47455 40.0999 8.03209 40.7313 8.16635C44.0098 8.86307 47.1014 10.1443 49.9198 11.9745C50.4613 12.326 51.1746 12.2511 51.6311 11.7947L54.5281 8.89779L61.1019 15.4716L58.205 18.3686C57.7486 18.8249 57.6736 19.5385 58.0252 20.0799C59.8555 22.8983 61.1368 25.99 61.8334 29.2685C61.9675 29.9 62.5252 30.3514 63.1708 30.3514H67.2656V39.6484Z" fill="#444444"/>
<path d="M19.8256 33.6328H18.7305C17.9754 33.6328 17.3633 34.2449 17.3633 35C17.3633 35.7551 17.9754 36.3672 18.7305 36.3672H19.8256C20.5807 36.3672 21.1928 35.7551 21.1928 35C21.1928 34.2449 20.5807 33.6328 19.8256 33.6328Z" fill="#444444"/>
<path d="M25.2641 23.3306L24.4625 22.5288C23.9286 21.9949 23.0629 21.9949 22.5289 22.5288C21.995 23.0627 21.995 23.9284 22.5289 24.4624L23.3306 25.2642C23.5977 25.5312 23.9475 25.6646 24.2974 25.6646C24.6472 25.6646 24.9972 25.5312 25.2641 25.2642C25.798 24.7303 25.798 23.8646 25.2641 23.3306Z" fill="#444444"/>
<path d="M35 17.3633C34.2449 17.3633 33.6328 17.9754 33.6328 18.7305V19.5135C33.6328 20.2686 34.2449 20.8806 35 20.8806C35.7551 20.8806 36.3672 20.2686 36.3672 19.5135V18.7305C36.3672 17.9754 35.7551 17.3633 35 17.3633Z" fill="#444444"/>
<path d="M51.2695 33.6328H50.4865C49.7314 33.6328 49.1194 34.2449 49.1194 35C49.1194 35.7551 49.7314 36.3672 50.4865 36.3672H51.2695C52.0246 36.3672 52.6367 35.7551 52.6367 35C52.6367 34.2449 52.0246 33.6328 51.2695 33.6328Z" fill="#444444"/>
</svg>
