<svg width="70" height="47" viewBox="0 0 70 47" fill="none" xmlns="http://www.w3.org/2000/svg">
<path d="M69.3778 3.18027C68.989 2.90684 68.4905 2.83984 68.0434 3.00514L56.1546 7.32888C54.6806 7.8644 53.507 8.94394 52.8505 10.368C52.7275 10.635 52.6467 10.9124 52.5657 11.1894C50.5242 10.609 46.7303 9.39688 42.9599 7.45425C37.2624 4.51848 32.9096 5.96852 29.1764 8.8161C27.2847 8.85329 24.6775 9.07696 22.1146 9.30282C20.4797 9.44706 18.9346 9.57982 17.6817 9.65624C17.651 8.90374 17.4749 8.15698 17.15 7.45151C16.4935 6.02731 15.3201 4.94778 13.8459 4.41239L1.95686 0.0883732C1.51116 -0.0754162 1.00981 -0.00842308 0.622482 0.263511C0.232149 0.537086 0 0.982789 0 1.45843V30.6251C0 31.4312 0.652286 32.0835 1.45838 32.0835H5.718C7.52966 32.0835 9.21514 31.229 10.3046 29.8492C10.885 30.2906 11.5724 30.8074 12.2934 31.3486C13.9952 32.629 15.858 34.026 16.6755 34.7111C22.1058 39.257 28.6342 44.166 29.9344 45.0205C31.1491 45.818 33.3366 46.6669 35.0001 46.6669C35.6509 46.6669 37.2901 46.6669 38.4409 45.6941C39.6272 46.1598 40.9061 46.1371 42.0952 45.6129C43.2815 45.0903 44.2415 44.1048 44.7997 42.907C45.939 43.1405 47.2478 42.9696 48.4341 42.3743C49.5463 41.8175 50.3652 40.9743 50.8038 39.9889C51.8577 40.0856 52.9829 39.7425 53.9897 38.9719C55.4282 37.8723 56.0869 36.2484 55.9006 34.6463L59.5998 32.5997C60.6831 34.0682 62.405 35 64.282 35H68.5416C69.3477 35 70 34.3477 70 33.5416V4.3752C70.0001 3.89942 69.768 3.45371 69.3778 3.18027ZM8.44951 27.2741C8.02513 28.4063 6.92714 29.1669 5.718 29.1669H2.91663V3.54053L12.8487 7.15223C13.5865 7.42143 14.1733 7.9612 14.5007 8.67323C14.8296 9.38526 14.8582 10.1829 14.5833 10.9162L8.44951 27.2741ZM52.2196 36.6551C51.7253 37.0339 51.0332 37.2448 50.7256 36.9371C50.7099 36.9214 50.6856 36.9229 50.6694 36.9079C50.6415 36.882 50.6277 36.8472 50.5975 36.8231C49.555 35.9999 44.8838 31.2205 41.9971 28.2098C41.4402 27.6274 40.516 27.6059 39.9363 28.1657C39.3539 28.7225 39.3339 29.6454 39.8922 30.2264C40.5697 30.9337 46.009 36.5986 48.1859 38.5798C48.0234 39.2202 47.4297 39.6156 47.1283 39.7668C46.1941 40.2354 45.22 40.157 44.8553 39.8181C44.8445 39.808 44.8284 39.8085 44.8172 39.7987C44.7994 39.7828 44.7915 39.7605 44.7726 39.7455C43.0237 38.3484 38.636 33.6857 37.6433 32.6062C37.0977 32.0123 36.1764 31.9752 35.5825 32.5193C34.9901 33.0649 34.9502 33.9877 35.4957 34.5801C35.5435 34.6319 39.8436 39.2704 42.2588 41.4249C42.0214 42.1069 41.5378 42.6717 40.9174 42.9455C40.4595 43.149 39.7434 43.2533 38.9251 42.6486C36.8309 40.8729 32.628 36.399 31.8014 35.5143C31.2531 34.9246 30.3274 34.8948 29.7406 35.4446C29.1525 35.9943 29.1212 36.9172 29.6709 37.5054C30.6509 38.5543 33.5476 41.6244 35.7496 43.7032C35.5036 43.7332 35.2453 43.7503 35.0001 43.7503C34.0344 43.7503 32.3753 43.1337 31.5366 42.5824C30.514 41.9102 24.0939 37.1194 18.5496 32.4766C17.7109 31.773 15.7968 30.3332 14.045 29.0173C13.1062 28.3125 12.2411 27.6627 11.6036 27.1723L17.0639 12.6095C18.4813 12.5476 20.3709 12.3842 22.3706 12.2078C23.5017 12.1082 24.634 12.011 25.716 11.9267C24.053 13.6339 21.5804 16.6917 21.9064 19.5578C22.0559 20.8624 22.7695 21.9491 23.9729 22.701C26.3555 24.1921 30.7662 22.9416 32.8909 20.3284C34.2623 20.1304 35.1896 19.7801 36.2006 19.2788C37.9096 20.8852 40.201 22.7737 42.6079 24.7575C46.7978 28.2097 51.5473 32.1233 52.8035 34.3179C53.5027 35.5385 52.5329 36.4158 52.2196 36.6551ZM54.7214 31.9651C52.7783 29.3658 48.5663 25.8881 44.4621 22.5061C41.7264 20.2516 39.1429 18.1224 37.4894 16.4691C37.0338 16.0161 36.3344 15.9136 35.7705 16.2141C34.285 17.0102 33.6158 17.3392 31.9381 17.5072C31.4909 17.5527 31.0894 17.8006 30.8501 18.1808C29.7064 19.9952 26.5277 20.8582 25.5194 20.2287C24.9468 19.8698 24.8358 19.5052 24.8045 19.2275C24.6636 17.9871 25.9196 15.8395 28.0032 13.7545C33.163 8.59476 36.8515 7.58509 41.6238 10.046C46.158 12.3838 50.6329 13.7056 52.5115 14.2049C52.5657 14.4234 52.6051 14.644 52.6852 14.8583L58.3477 29.959L54.7214 31.9651ZM67.0835 32.0835H64.2821C63.073 32.0835 61.975 31.3229 61.5506 30.1908L55.4167 13.8344C55.1419 13.0995 55.1704 12.302 55.4993 11.5899C55.8269 10.8778 56.4137 10.3381 57.1513 10.0689L67.0834 6.45715V32.0835H67.0835Z" fill="#FF8400"/>
</svg>
