<svg width="184" height="276" viewBox="0 0 184 276" fill="none" xmlns="http://www.w3.org/2000/svg">
<path d="M0 196.122C0 220.776 6.91331 243.932 19.4685 261.378C21.6821 264.454 24.5882 266 27.4943 266C30.4004 266 33.3065 264.454 35.5315 261.378C39.9587 255.211 39.9587 245.242 35.5315 239.074C27.2559 227.575 22.7152 212.337 22.7152 196.122C22.7152 179.906 27.2673 164.653 35.5315 153.154C48.0867 135.724 55 112.552 55 87.8978C55 63.2433 48.0867 40.0873 35.5315 22.6257C31.0929 16.4581 23.9185 16.4581 19.4799 22.6257C15.0413 28.7932 15.0413 38.7623 19.4799 44.9299C27.7441 56.429 32.2962 71.6665 32.2962 87.8978C32.2962 104.097 27.7441 119.351 19.4799 130.85C6.91331 148.296 0 171.467 0 196.122Z" fill="white" fill-opacity="0.3"/>
<path d="M64 184.586C64 210.135 71.039 234.132 83.8225 252.211C86.0764 255.398 89.0353 257 91.9942 257C94.9531 257 97.9121 255.398 100.178 252.211C104.685 245.819 104.685 235.488 100.178 229.097C91.7515 217.18 87.1282 201.39 87.1282 184.586C87.1282 167.782 91.7631 151.975 100.178 140.059C112.961 121.996 120 97.9836 120 72.4344C120 46.8852 112.961 22.8889 100.178 4.79354C95.6582 -1.59785 88.3533 -1.59785 83.834 4.79354C79.3147 11.1849 79.3147 21.5158 83.834 27.9072C92.2485 39.8236 96.8834 55.6141 96.8834 72.4344C96.8834 89.222 92.2485 105.029 83.834 116.945C71.039 135.024 64 159.037 64 184.586Z" fill="white" fill-opacity="0.3"/>
<path d="M129 203.586C129 229.135 135.913 253.132 148.469 271.211C150.682 274.398 153.588 276 156.494 276C159.4 276 162.307 274.398 164.531 271.211C168.959 264.819 168.959 254.488 164.531 248.097C156.256 236.18 151.715 220.39 151.715 203.586C151.715 186.782 156.267 170.975 164.531 159.059C177.087 140.996 184 116.984 184 91.4344C184 65.8852 177.087 41.8889 164.531 23.7935C160.093 17.4022 152.918 17.4022 148.48 23.7935C144.041 30.1849 144.041 40.5158 148.48 46.9072C156.744 58.8236 161.296 74.6141 161.296 91.4344C161.296 108.222 156.744 124.029 148.48 135.945C135.913 154.024 129 178.037 129 203.586Z" fill="white" fill-opacity="0.3"/>
</svg>
