<svg width="70" height="70" viewBox="0 0 70 70" fill="none" xmlns="http://www.w3.org/2000/svg">
<path d="M56.7271 60.9678L54.1134 53.1255C53.2 50.3876 50.8697 48.3666 48.029 47.8495L40.4837 46.4766V45.8918C41.7968 45.1297 42.9394 44.1102 43.8494 42.9032H46.1289C47.9963 42.9032 49.516 41.3836 49.516 39.5162V25.9678C49.516 17.8749 42.9314 11.2903 34.8385 11.2903C26.7456 11.2903 20.1611 17.8749 20.1611 25.9678V33.871C20.1611 36.0478 21.709 37.8689 23.7616 38.2934C24.395 41.5382 26.4227 44.2841 29.1934 45.8918V46.4766L21.6469 47.8495C18.8074 48.3666 16.476 50.3876 15.5637 53.1255L15.1121 54.4815L11.2666 50.636C10.8263 50.1957 10.8263 49.4787 11.2666 49.0384L15.7263 44.5799L7.35565 36.2092L2.31565 41.2492C0.823065 42.7418 0.00112915 44.7266 0.00112915 46.8379C0.00112915 48.9492 0.823065 50.9329 2.31565 52.4255L17.5745 67.6844C19.0671 69.177 21.0519 70 23.1632 70C25.2745 70 27.2582 69.177 28.7158 67.7182L34.2153 62.6794L32.5003 60.9678H56.7271ZM47.2579 39.5162C47.2579 40.1394 46.751 40.6452 46.1289 40.6452H45.1794C45.5068 39.8989 45.7552 39.112 45.9155 38.2934C46.3987 38.1929 46.8436 38.001 47.2579 37.7594V39.5162ZM46.1289 35.8152V31.9268C46.8006 32.3186 47.2579 33.0389 47.2579 33.871C47.2579 34.7031 46.8006 35.4234 46.1289 35.8152ZM23.5482 35.8152C22.8764 35.4234 22.4192 34.7031 22.4192 33.871C22.4192 33.0389 22.8764 32.3186 23.5482 31.9268V35.8152ZM23.5482 28.2258V29.5152C23.1463 29.6202 22.7692 29.7782 22.4192 29.9826V25.9678C22.4192 19.1202 27.991 13.5484 34.8385 13.5484C41.6861 13.5484 47.2579 19.1202 47.2579 25.9678V29.9826C46.9079 29.7782 46.5308 29.6191 46.1289 29.5152V28.2258H44.9998C41.6613 28.2258 38.5226 26.9252 36.1606 24.5644L34.8385 23.2423L33.5165 24.5644C31.1545 26.9252 28.0158 28.2258 24.6773 28.2258H23.5482ZM25.8063 36.1291V30.441C29.1968 30.1858 32.3581 28.787 34.8385 26.4284C37.319 28.787 40.4803 30.187 43.8708 30.441V36.1291C43.8708 37.7752 43.4215 39.3152 42.6492 40.6452H34.8385V42.9032H40.7931C39.2011 44.3044 37.1203 45.1613 34.8385 45.1613C29.8584 45.1613 25.8063 41.1092 25.8063 36.1291ZM38.2256 46.8989V46.952L34.8385 50.3391L31.4515 46.952V46.8989C32.5218 47.2353 33.6587 47.4194 34.8385 47.4194C36.0184 47.4194 37.1553 47.2353 38.2256 46.8989ZM17.7044 53.8391C18.3558 51.8836 20.0211 50.4395 22.05 50.0692L29.9419 48.6353L34.8385 53.532L39.734 48.6365L47.6248 50.0703C49.6537 50.4407 51.319 51.8836 51.9705 53.8402L53.5952 58.7097H30.2423L25.8447 54.3121L20.9582 58.7323C20.5326 59.1602 19.7885 59.1602 19.3618 58.7323L16.896 56.2665L17.7044 53.8391ZM7.35452 39.4021L12.5323 44.5799L11.3061 45.806L6.12839 40.6282L7.35452 39.4021ZM27.1521 66.0902C26.0863 67.1537 24.6682 67.742 23.161 67.742C21.6537 67.742 20.2356 67.1537 19.1687 66.0879L3.90984 50.8302C2.84403 49.7644 2.25694 48.3463 2.25694 46.8391C2.25694 45.3307 2.84403 43.9126 3.90984 42.8468L4.53081 42.2258L9.70855 47.4036L9.6679 47.4442C8.34806 48.7652 8.34806 50.9137 9.6679 52.2347L17.7642 60.331C18.4044 60.97 19.2545 61.3234 20.16 61.3234C21.0655 61.3234 21.9156 60.9711 22.514 60.3705L22.5987 60.2949L27.8002 65.4963L27.1521 66.0902ZM29.4666 63.9676L24.2765 58.7774L25.7679 57.4294L30.949 62.6105L29.4666 63.9676Z" fill="#FF8400"/>
<path d="M66.4515 0H50.645C48.7776 0 47.2579 1.51968 47.2579 3.3871V12.4194C47.2579 14.2868 48.7776 15.8065 50.645 15.8065H53.6606L52.4932 22.6156L63.3884 15.8065H66.4515C68.3189 15.8065 69.8385 14.2868 69.8385 12.4194V3.3871C69.8385 1.51968 68.3189 0 66.4515 0ZM67.5805 12.4194C67.5805 13.0415 67.0735 13.5484 66.4515 13.5484H62.7403L55.5698 18.0295L56.3387 13.5484H50.645C50.0229 13.5484 49.516 13.0415 49.516 12.4194V3.3871C49.516 2.765 50.0229 2.25806 50.645 2.25806H66.4515C67.0735 2.25806 67.5805 2.765 67.5805 3.3871V12.4194Z" fill="#FF8400"/>
<path d="M65.3224 4.51611H51.774V6.77418H65.3224V4.51611Z" fill="#FF8400"/>
<path d="M60.8063 9.03229H51.774V11.2904H60.8063V9.03229Z" fill="#FF8400"/>
<path d="M65.3224 9.03229H63.0644V11.2904H65.3224V9.03229Z" fill="#FF8400"/>
<path d="M34.8385 3.38708C20.0866 3.38708 7.37935 13.5913 4.07581 27.825L1.93629 24.2584L0 25.4201L3.96855 32.0329L10.5813 28.0643L9.41952 26.1281L6.35984 27.9639C9.55952 14.9427 21.2687 5.64515 34.8385 5.64515C37.8045 5.64515 40.731 6.08547 43.5366 6.95483L44.205 4.79838C41.1826 3.86128 38.0314 3.38708 34.8385 3.38708Z" fill="#FF8400"/>
<path d="M69.2898 24.999L62.6771 21.0305L58.7097 27.6443L60.646 28.8061L62.6218 25.5127C63.6616 28.5555 64.1934 31.7382 64.1934 35C64.1934 41.7143 61.8676 48.2785 57.6461 53.4822L59.3995 54.9048C63.9472 49.3003 66.4514 42.2303 66.4514 35C66.4514 31.5463 65.8948 28.1738 64.8098 24.9448L68.1281 26.9353L69.2898 24.999Z" fill="#FF8400"/>
</svg>
