<svg width="70" height="70" viewBox="0 0 70 70" fill="none" xmlns="http://www.w3.org/2000/svg">
<path d="M17.4535 5.07971C16.8027 4.52379 15.842 4.53131 15.2 5.09721L10.5051 9.29866V8.74807C10.5051 8.10385 9.98291 7.58169 9.33869 7.58169C8.69447 7.58169 8.17231 8.10385 8.17231 8.74807V11.3877L6.22775 13.128C5.75494 13.5593 5.7179 14.291 6.14478 14.7679C6.57167 15.2448 7.30296 15.2886 7.7837 14.8661L16.3371 7.20962L24.8905 14.8661C25.2003 15.1486 25.6379 15.2432 26.0367 15.1137C26.4355 14.9843 26.7341 14.6508 26.8188 14.24C26.9036 13.8294 26.7614 13.4048 26.4465 13.128L17.4535 5.07971Z" fill="#444444"/>
<path d="M23.3358 16.3301C22.6916 16.3301 22.1694 16.8522 22.1694 17.4965V25.6614H10.5051V17.4965C10.5051 16.8522 9.9829 16.3301 9.33868 16.3301C8.69446 16.3301 8.1723 16.8522 8.1723 17.4965V26.4021C8.18378 27.2927 8.91481 28.0054 9.80534 27.9943H22.8693C23.7603 28.0033 24.4907 27.2896 24.5023 26.3986V17.4965C24.5022 16.8522 23.9799 16.3301 23.3358 16.3301Z" fill="#444444"/>
<path d="M16.3372 30.3271C11.8278 30.3271 8.1723 33.9828 8.1723 38.4921C8.1723 43.0014 11.828 46.657 16.3372 46.657C20.8465 46.657 24.5022 43.0014 24.5022 38.4921C24.497 33.9849 20.8445 30.3322 16.3372 30.3271ZM10.5051 38.4921C10.5086 35.7216 12.4571 33.3346 15.1707 32.7766V37.8308L10.855 40.419C10.629 39.8014 10.5107 39.1497 10.5051 38.4921ZM12.057 42.4191L16.1564 39.9595L19.5484 43.3514C17.1654 44.9411 13.9775 44.5443 12.057 42.4191ZM21.1977 41.7021L17.5036 38.0092V32.7766C19.4025 33.1614 20.9857 34.4657 21.7267 36.256C22.4675 38.0462 22.2693 40.0878 21.1977 41.7021Z" fill="#444444"/>
<path d="M62.9942 20.9956V17.0029C62.9936 15.9873 62.1704 15.1641 61.1548 15.1635H57.8351C56.8195 15.1641 55.9964 15.9873 55.9957 17.0029V20.9956H53.6628V13.6822C53.6616 12.5683 52.7589 11.6656 51.6448 11.6642H48.6821C47.5683 11.6656 46.6656 12.5683 46.6642 13.6822V20.9956H44.3315V8.16491C44.3315 6.87647 43.287 5.83202 41.9986 5.83202H39.6657C38.3772 5.83202 37.3328 6.87647 37.3328 8.16491V20.9956H36.1664C35.5222 20.9956 35 20.4733 35 19.8293V5.83215C35 5.18793 34.4777 4.66577 33.8336 4.66577C33.1896 4.66577 32.6673 5.18793 32.6673 5.83215V19.8293C32.6673 21.7618 34.2339 23.3285 36.1665 23.3285H62.9944C63.6386 23.3285 64.1608 22.8064 64.1608 22.1622C64.1608 21.5179 63.6385 20.9956 62.9942 20.9956ZM41.9986 20.9956H39.6657V8.16491H41.9986V20.9956ZM51.33 20.9956H48.9971V13.9971H51.33V20.9956ZM60.6613 20.9956H58.3286V17.4964H60.6615V20.9956H60.6613Z" fill="#444444"/>
<path d="M62.9942 44.3243H36.1664C35.5222 44.3243 35 43.8021 35 43.1579V41.3079L38.841 37.4669C39.3018 37.0246 40.0296 37.0246 40.4903 37.4669L41.8574 38.8339C43.2239 40.2 45.4389 40.2 46.8053 38.8339L51.6716 33.9676C52.1324 33.5253 52.8601 33.5253 53.3209 33.9676L54.688 35.3359C56.056 36.6981 58.2679 36.6981 59.6359 35.3359L63.8188 31.153C64.2608 30.6954 64.2545 29.9678 63.8045 29.5179C63.3546 29.068 62.6271 29.0617 62.1695 29.5037L57.9866 33.6854C57.5311 34.1407 56.7927 34.1407 56.3373 33.6854L54.9702 32.3183C53.5856 30.9968 51.4069 30.9968 50.0223 32.3183L45.156 37.1846C44.7005 37.64 43.9621 37.64 43.5067 37.1846L42.1409 35.8176C40.7559 34.4959 38.5767 34.4959 37.1917 35.8176L35 38.0093V29.1608C35 28.5165 34.4777 27.9944 33.8336 27.9944C33.1896 27.9944 32.6673 28.5167 32.6673 29.1608V43.1579C32.6673 45.0904 34.2339 46.6571 36.1665 46.6571H62.9944C63.6386 46.6571 64.1608 46.1349 64.1608 45.4908C64.1606 44.8464 63.6385 44.3243 62.9942 44.3243Z" fill="#444444"/>
<path d="M69.9928 54.1851V6.46778C70.155 3.07595 67.5511 0.188223 64.1606 0H5.83941C2.44894 0.188359 -0.155016 3.07608 0.00723564 6.46778V54.1851C-0.155563 57.5773 2.44839 60.4657 5.83941 60.6541H24.5022V62.987H19.8365C17.2598 62.987 15.1709 65.0759 15.1709 67.6526V68.819C15.1709 69.4632 15.693 69.9854 16.3372 69.9854H53.6629C54.3071 69.9854 54.8293 69.4632 54.8293 68.819V67.6526C54.8293 65.0759 52.7404 62.987 50.1636 62.987H45.498V60.6541H64.1607C67.5516 60.4659 70.1556 57.5773 69.9928 54.1851ZM50.1635 65.3199C51.4519 65.3199 52.4964 66.3643 52.4964 67.6528H17.5036C17.5036 66.3643 18.5481 65.3199 19.8365 65.3199H50.1635ZM26.8351 62.987V60.6541H43.1651V62.987H26.8351ZM64.1606 58.3213H5.83941C3.73971 58.1286 2.18239 56.2878 2.34013 54.1852V51.3228H67.66V54.1852C67.8177 56.2878 66.2604 58.1286 64.1606 58.3213ZM67.6599 6.46778V48.9899H2.34013V6.46778C2.18239 4.36535 3.73984 2.52495 5.83941 2.33276H64.1607C66.2602 2.52495 67.8177 4.36535 67.6599 6.46778Z" fill="#444444"/>
</svg>
