<svg width="70" height="65" viewBox="0 0 70 65" fill="none" xmlns="http://www.w3.org/2000/svg">
<path d="M38.5 46C39.3284 46 40 45.5523 40 45C40 44.4477 39.3284 44 38.5 44C37.6716 44 37 44.4477 37 45C37 45.5523 37.6716 46 38.5 46Z" fill="#FF8400"/>
<path d="M57.5001 4C56.9659 4 56.5329 4.46181 56.5329 5.03176C56.5329 5.60172 56.9659 6.06352 57.5001 6.06352C60.5689 6.06352 63.0656 8.72665 63.0656 12.0001C63.0656 15.2735 60.5689 17.9366 57.5001 17.9366C54.4313 17.9366 51.9347 15.2735 51.9347 12.0001C51.9347 9.72986 53.1752 7.62777 55.0951 6.64473C55.5767 6.39811 55.7797 5.78177 55.5485 5.26795C55.3174 4.7544 54.7395 4.53784 54.2579 4.78418C51.6713 6.10854 50 8.94101 50 11.9999C50 16.4112 53.3645 20 57.5 20C61.6355 20 65 16.4112 65 11.9999C65.0001 7.5888 61.6355 4 57.5001 4Z" fill="#FF8400"/>
<path d="M57.8875 0C52.3756 0 47.584 3.73214 46.1844 8.98936H44.3519V8.08444C44.3519 6.18375 42.807 4.63747 40.908 4.63747C40.3912 4.63747 39.9009 4.75269 39.4605 4.95781C39.1628 3.35857 37.7588 2.14358 36.0758 2.14358C35.3833 2.14358 34.7384 2.34994 34.1978 2.70339C33.5951 1.6994 32.4966 1.02588 31.2437 1.02588C29.9907 1.02588 28.8921 1.69927 28.2896 2.70339C27.749 2.34994 27.1041 2.14358 26.4117 2.14358C24.5126 2.14358 22.9677 3.68972 22.9677 5.59055V7.56774C22.0064 6.77216 20.7742 6.2935 19.4323 6.2935C18.8646 6.2935 18.4044 6.75396 18.4044 7.32225V8.98909H1.02785C0.460196 8.98922 0 9.44969 0 10.018V14.2284C0 14.7967 0.460196 15.2571 1.02785 15.2571H3.78014V17.9988C3.78014 18.5671 4.24034 19.0276 4.808 19.0276H8.23992C8.80758 19.0276 9.26777 18.5671 9.26777 17.9988V15.2574H10.0319V17.999C10.0319 18.5673 10.4921 19.0277 11.0597 19.0277H14.4915C15.0592 19.0277 15.5194 18.5673 15.5194 17.999V15.2574H18.4043V22.2092C18.4043 24.184 19.2357 26.0851 20.6852 27.4246L21.966 28.6085V32.0397H21.3414C20.7738 32.0397 20.3136 32.5002 20.3136 33.0685V39.1808H19.4321C18.8645 39.1808 18.4043 39.6413 18.4043 40.2096V45.9725C18.4043 46.5408 18.8645 47.0013 19.4321 47.0013C19.9998 47.0013 20.46 46.5408 20.46 45.9725V41.2383H21.3414H40.9765H41.8578V62.9423H20.4601V49.4019C20.4601 48.8336 19.9999 48.3731 19.4323 48.3731C18.8646 48.3731 18.4044 48.8336 18.4044 49.4019V63.9712C18.4044 64.5395 18.8646 65 19.4323 65H42.8856C43.4533 65 43.9135 64.5395 43.9135 63.9712V40.2096C43.9135 39.6413 43.4533 39.1808 42.8856 39.1808H42.0043V33.0685C42.0043 32.5002 41.5441 32.0397 40.9765 32.0397H40.6554V28.5224L42.2288 26.5773C43.5857 24.8996 44.3331 22.7871 44.3331 20.6286V15.2577H46.1842C47.5838 20.5149 52.3755 24.247 57.8874 24.247C64.5662 24.247 70 18.8086 70 12.1237C70 5.43866 64.5664 0 57.8875 0ZM18.4044 13.2H14.4915C13.9239 13.2 13.4637 13.6605 13.4637 14.2288V16.9704H12.0876V14.2288C12.0876 13.6605 11.6274 13.2 11.0597 13.2H8.23992C7.67226 13.2 7.21206 13.6605 7.21206 14.2288V16.9704H5.83585V14.2288C5.83585 13.6605 5.37566 13.2 4.808 13.2H2.05571V11.0471H18.4043V13.2H18.4044ZM34.6875 5.59069C34.6877 4.82453 35.3104 4.20123 36.0758 4.20123C36.8413 4.20123 37.464 4.82453 37.464 5.59069V8.08458V14.6502C37.464 15.4164 36.8413 16.0397 36.0758 16.0397C35.3103 16.0397 34.6875 15.4164 34.6875 14.6502V5.59069ZM29.8555 5.59069V4.47313C29.8555 3.70697 30.4782 3.08367 31.2437 3.08367C32.0092 3.08367 32.632 3.70697 32.632 4.47313V5.59069V14.6502C32.632 15.4164 32.0092 16.0397 31.2437 16.0397C30.4782 16.0397 29.8555 15.4164 29.8555 14.6502V5.59069ZM28.8276 17.1038C28.8502 17.1261 28.8734 17.148 28.8965 17.1696C28.8645 17.1562 28.8325 17.1428 28.8005 17.1294C28.8097 17.1209 28.8187 17.1125 28.8276 17.1038ZM25.0234 5.59069C25.0234 4.82453 25.6462 4.20123 26.4117 4.20123C27.1771 4.20123 27.7999 4.82453 27.7999 5.59069V14.6502C27.7999 15.4164 27.1771 16.0397 26.4117 16.0397C25.6462 16.0397 25.0234 15.4164 25.0234 14.6502V5.59069ZM39.9485 39.1808H22.3693V34.0972H22.9938H31.1588H39.9485V39.1808ZM42.2772 20.6287C42.2772 22.3175 41.6926 23.9701 40.631 25.2826L38.8286 27.5109C38.6804 27.694 38.5996 27.9225 38.5996 28.1582V32.0397H31.1588H24.0217V28.1582C24.0217 27.8711 23.9019 27.5971 23.6911 27.4024L22.0797 25.9132C21.0504 24.9617 20.4599 23.6117 20.4599 22.2094L20.46 8.5055C21.8902 8.94612 22.9327 10.281 22.9327 11.855V16.8945C22.9327 17.4197 23.3281 17.8606 23.8497 17.9173C23.9392 17.927 32.8076 18.9579 32.8076 24.8664C32.8076 25.4347 33.2678 25.8951 33.8355 25.8951C34.4032 25.8951 34.8633 25.4347 34.8633 24.8664C34.8633 22.0307 33.4081 19.6943 30.6356 18.0425C30.8331 18.0779 31.0359 18.0974 31.2434 18.0974C32.1841 18.0974 33.0373 17.7176 33.6595 17.1038C34.2817 17.7176 35.135 18.0974 36.0756 18.0974C37.0163 18.0974 37.8695 17.7176 38.4917 17.1038C39.1139 17.7176 39.9672 18.0974 40.9078 18.0974C41.3944 18.0974 41.8573 17.9953 42.2772 17.8123V20.6287ZM42.2961 9.82504C42.2842 9.88771 42.2773 9.95216 42.2773 10.0183V14.2286C42.2773 14.2947 42.2842 14.3592 42.2961 14.4219V14.6501C42.2961 15.4163 41.6733 16.0396 40.9078 16.0396C40.1423 16.0396 39.5196 15.4163 39.5196 14.6501V8.08458C39.5196 7.31842 40.1423 6.69512 40.9078 6.69512C41.6733 6.69512 42.2961 7.31842 42.2961 8.08458V9.82504ZM57.8875 22.1894C53.0724 22.1894 48.9192 18.7598 48.0122 14.0347C47.9192 13.5502 47.4958 13.2 47.0028 13.2H44.3518V11.0471H47.0028C47.4958 11.0471 47.9192 10.697 48.0122 10.2124C48.9192 5.48724 53.0723 2.05778 57.8875 2.05778C63.4328 2.05778 67.9444 6.57333 67.9444 12.1237C67.9444 17.674 63.4328 22.1894 57.8875 22.1894Z" fill="#FF8400"/>
</svg>
