<svg width="70" height="70" viewBox="0 0 70 70" fill="none" xmlns="http://www.w3.org/2000/svg">
<path d="M68.8333 12.8333H51.3333V5.83333C51.3333 2.61683 48.7165 0 45.5 0H24.5C21.2835 0 18.6667 2.61683 18.6667 5.83333V12.8333H1.16667C0.5215 12.8333 0 13.356 0 14V29.1667V64.1667C0 67.3832 2.61683 70 5.83333 70H64.1667C67.3832 70 70 67.3832 70 64.1667V29.1667V14C70 13.356 69.4785 12.8333 68.8333 12.8333ZM21 5.83333C21 3.90367 22.5703 2.33333 24.5 2.33333H45.5C47.4297 2.33333 49 3.90367 49 5.83333V12.8333H46.6667V5.83333C46.6667 5.18933 46.1452 4.66667 45.5 4.66667H24.5C23.8548 4.66667 23.3333 5.18933 23.3333 5.83333V12.8333H21V5.83333ZM44.3333 7V12.8333H25.6667V7H44.3333ZM19.8333 53.6667V67.6667H15.1667V53.6667C15.1667 53.3202 15.0127 52.9923 14.7478 52.7707L8.16667 47.2873V41.3933L11.6667 38.5933V44.3333C11.6667 44.7008 11.8393 45.0462 12.1333 45.2667L16.8 48.7667C17.2142 49.0782 17.7847 49.0782 18.1988 48.7667L22.8655 45.2667C23.1595 45.0473 23.3322 44.7008 23.3322 44.3333V38.5945L26.8322 41.3945V47.2873L20.251 52.7707C19.9873 52.9923 19.8333 53.3202 19.8333 53.6667ZM44.3333 67.6667H32.6667V65.3333H44.3333V67.6667ZM36.9915 47.0085L35.1435 45.1605L37.0463 38.5H39.9537L41.8565 45.1605L40.0085 47.0085C39.7892 47.2267 39.6667 47.5242 39.6667 47.8333V63H37.3333V47.8333C37.3333 47.5242 37.2108 47.2267 36.9915 47.0085ZM60.6667 67.6667H57.1667V65.3333H54.8333V67.6667H51.3333V65.8163L55.6582 61.4915C55.8857 61.264 56 60.9653 56 60.6667C56 60.9653 56.1143 61.264 56.3418 61.4915L60.6667 65.8163V67.6667ZM54.8333 59.017L51.3333 55.517V45.983L54.1497 43.1667H54.8333V59.017ZM67.6667 64.1667C67.6667 66.0963 66.0963 67.6667 64.1667 67.6667H63V65.3333C63 65.0242 62.8775 64.7267 62.6582 64.5085L58.8163 60.6667L62.6582 56.8248C62.8775 56.6067 63 56.3092 63 56V45.5C63 45.1908 62.8775 44.8933 62.6582 44.6752L59.1582 41.1752C58.94 40.9558 58.6437 40.8333 58.3333 40.8333H56H53.6667C53.3563 40.8333 53.06 40.9558 52.8418 41.1752L49.3418 44.6752C49.1225 44.8933 49 45.1908 49 45.5V56C49 56.3092 49.1225 56.6067 49.3418 56.8248L53.1837 60.6667L49.3418 64.5085C49.1225 64.7267 49 65.0242 49 65.3333V67.6667H46.6667V64.1667C46.6667 63.5227 46.1452 63 45.5 63H42V48.3163L43.9915 46.3248C44.2913 46.025 44.4045 45.5875 44.289 45.1792L41.9557 37.0125C41.8122 36.512 41.3537 36.1667 40.8333 36.1667H36.1667C35.6463 36.1667 35.1878 36.512 35.0443 37.0125L32.711 45.1792C32.5943 45.5875 32.7087 46.025 33.0085 46.3248L35 48.3163V63H31.5C30.8548 63 30.3333 63.5227 30.3333 64.1667V67.6667H22.1667V54.2127L28.7478 48.7293C29.0127 48.5077 29.1667 48.1798 29.1667 47.8333V40.8333C29.1667 40.4787 29.0057 40.1438 28.7292 39.9222L22.8958 35.2555C22.5447 34.9755 22.064 34.9218 21.6603 35.1143C21.2578 35.3092 21 35.7187 21 36.1667V43.75L17.5 46.375L14 43.75V36.1667C14 35.7187 13.7422 35.3092 13.3397 35.1155C12.9337 34.923 12.4553 34.9755 12.1042 35.2567L6.27083 39.9233C5.99433 40.1438 5.83333 40.4787 5.83333 40.8333V47.8333C5.83333 48.1798 5.98733 48.5077 6.25217 48.7293L12.8333 54.2127V67.6667H5.83333C3.90367 67.6667 2.33333 66.0963 2.33333 64.1667V30.3333H67.6667V64.1667ZM57.1667 59.017V43.1667H57.8503L60.6667 45.983V55.517L57.1667 59.017ZM67.6667 28H2.33333V15.1667H19.8333H24.5H45.5H50.1667H67.6667V28Z" fill="#FF8400"/>
</svg>
