<svg width="70" height="70" viewBox="0 0 70 70" fill="none" xmlns="http://www.w3.org/2000/svg">
<path d="M68.871 36.129H65.4839V30.4839C65.4839 19.5199 58.6286 9.80351 48.3709 6.08343L48.5462 3.46152C48.5677 3.15004 48.458 2.84408 48.2446 2.61475C48.0302 2.38817 47.7319 2.25806 47.4194 2.25806H43.9633L44.0301 1.19905C44.0493 0.888672 43.9396 0.582708 43.7263 0.355579C43.5129 0.128449 43.2147 0 42.9032 0H27.0968C26.7853 0 26.4871 0.128449 26.2737 0.355579C26.0604 0.582708 25.9507 0.888672 25.9699 1.19905L26.0367 2.25806H22.5806C22.2681 2.25806 21.9698 2.38817 21.7565 2.61585C21.5431 2.84408 21.4334 3.15115 21.4549 3.46262L21.6302 6.08454C11.3714 9.80351 4.51613 19.5199 4.51613 30.4839V36.129H1.12903C0.50608 36.129 0 36.6335 0 37.2581V44.0323C0 44.6569 0.50608 45.1613 1.12903 45.1613H68.871C69.4939 45.1613 70 44.6569 70 44.0323V37.2581C70 36.6335 69.4939 36.129 68.871 36.129ZM63.2258 30.4839V36.129H46.3681L48.2143 8.43852C57.2372 11.9938 63.2258 20.693 63.2258 30.4839ZM46.2126 4.51613L44.1056 36.129H41.8475L43.8233 4.51613H46.2126ZM41.702 2.25806L39.585 36.129H30.4161L28.298 2.25806H41.702ZM26.1778 4.51613L28.1536 36.129H25.8955L23.7874 4.51613H26.1778ZM6.77419 30.4839C6.77419 20.693 12.7628 11.9938 21.7857 8.43852L23.6319 36.129H6.77419V30.4839ZM67.7419 42.9032H2.25806V38.3871H67.7419V42.9032Z" fill="#444444"/>
<path d="M5.64516 49.6775H0V51.9356H4.51613V54.1936H0V56.4517H4.51613V60.9678C4.51613 61.3686 4.72948 61.7413 5.07623 61.943L18.6246 69.8463C18.7972 69.9471 18.994 70.0001 19.1935 70.0001H30.4839C31.0021 70.0001 31.4536 69.6478 31.5793 69.1445L33.6234 60.9678H36.3766L38.4207 69.1445C38.5464 69.6478 38.9979 70.0001 39.5161 70.0001H50.8064C51.006 70.0001 51.2028 69.9471 51.3754 69.8463L64.9238 61.943C65.2705 61.7413 65.4839 61.3686 65.4839 60.9678V56.4517H70V54.1936H65.4839V51.9356H70V49.6775H5.64516ZM63.2258 60.3195L50.5005 67.742H40.3965L38.3524 59.5653C38.2278 59.062 37.7763 58.7097 37.2581 58.7097H32.7419C32.2237 58.7097 31.7722 59.062 31.6465 59.5653L29.6024 67.742H19.4984L6.77419 60.3195V51.9356H63.2258V60.3195Z" fill="#444444"/>
<path d="M51.1367 56.1214L52.7332 54.5249L57.2493 59.041L55.6528 60.6376L51.1367 56.1214Z" fill="#444444"/>
<path d="M44.3625 56.1215L45.9595 54.5244L50.4757 59.0405L48.8786 60.6376L44.3625 56.1215Z" fill="#444444"/>
</svg>
