<svg width="26" height="38" viewBox="0 0 26 38" fill="none" xmlns="http://www.w3.org/2000/svg">
<path d="M23.512 0H2.488C1.6674 0 1 0.8284 1 1.84553V36.1545C1 37.1716 1.6674 38 2.488 38H23.512C24.3326 38 25 37.1716 25 36.1545V1.84553C25 0.8284 24.3326 0 23.512 0ZM23.9787 36.1545C23.9787 36.4737 23.7694 36.7333 23.512 36.7333H2.488C2.23064 36.7333 2.02128 36.4737 2.02128 36.1545V1.84553C2.02128 1.52633 2.23064 1.26667 2.488 1.26667H23.512C23.7694 1.26667 23.9787 1.52633 23.9787 1.84553V36.1545Z" fill="#FF8400"/>
<rect x="11" y="30" width="4" height="4" fill="#FF8400"/>
<rect x="9" y="1" width="8" height="2" fill="#FF8400"/>
</svg>
