<svg width="46" height="40" viewBox="0 0 46 40" fill="none" xmlns="http://www.w3.org/2000/svg">
<path d="M14.5974 19.8213H11.9498V22.4672H14.5974V19.8213Z" fill="white"/>
<path d="M13.2742 6.58057C10.761 6.58057 8.71635 8.62523 8.71635 11.1384H11.3622C11.3622 10.0841 12.2199 9.22644 13.2742 9.22644C14.3284 9.22644 15.186 10.0841 15.186 11.1384C15.186 12.1925 14.3283 13.0502 13.2742 13.0502H11.9512V17.1715H14.597V15.5003C16.4672 14.9322 17.8319 13.1916 17.8319 11.1384C17.8319 8.62523 15.7873 6.58057 13.2742 6.58057Z" fill="white"/>
<path d="M26.5483 5.29606V0H0V29.0477H4.44994V34.7039L12.3779 29.0477H21.2017V34.3438H32.7767L40.7047 40V34.3438H45.1547V5.29606H26.5483ZM11.5309 26.4018L7.0959 29.5659V26.4017H2.64587V2.64587H23.9024V26.4018H11.5309ZM42.5088 31.6978H38.0589V34.862L33.6239 31.6978H23.8478V29.0477H26.5484V7.94193H42.5088V31.6978Z" fill="white"/>
<path d="M34.4924 24.2345V18.0557H29.1974V20.7016H31.8465V24.2345H29.1974V26.8804H37.1415V24.2345H34.4924Z" fill="white"/>
<path d="M34.4929 12.7593H31.8453V15.4051H34.4929V12.7593Z" fill="white"/>
</svg>
