<svg width="70" height="61" viewBox="0 0 70 61" fill="none" xmlns="http://www.w3.org/2000/svg">
<path d="M20.3226 24.8386C11.6062 24.8386 4.51613 31.9287 4.51613 40.6451C4.51613 49.3614 11.6062 56.4515 20.3226 56.4515C29.039 56.4515 36.129 49.3614 36.129 40.6451C36.129 31.9287 29.039 24.8386 20.3226 24.8386ZM20.3226 27.0967C26.6216 27.0967 31.9156 31.4243 33.425 37.258H24.8095C23.7775 35.8952 22.1584 34.9999 20.3226 34.9999C18.4868 34.9999 16.8666 35.8952 15.8357 37.258H7.22018C8.7296 31.4243 14.0236 27.0967 20.3226 27.0967ZM33.871 40.6451C33.871 41.0266 33.8451 41.4003 33.8136 41.7741H25.8536C25.928 41.4092 25.9677 41.031 25.9677 40.6451C25.9677 40.2592 25.928 39.881 25.8536 39.516H33.8136C33.8451 39.8898 33.871 40.2636 33.871 40.6451ZM14.7915 41.7741H6.83153C6.8001 41.4003 6.77419 41.0266 6.77419 40.6451C6.77419 40.2636 6.8001 39.8898 6.83153 39.516H14.7915C14.7171 39.881 14.6774 40.2592 14.6774 40.6451C14.6774 41.031 14.7171 41.4092 14.7915 41.7741ZM20.3226 37.258C22.1898 37.258 23.7097 38.7779 23.7097 40.6451C23.7097 42.5123 22.1898 44.0322 20.3226 44.0322C18.4554 44.0322 16.9355 42.5123 16.9355 40.6451C16.9355 38.7779 18.4554 37.258 20.3226 37.258ZM20.3226 54.1935C14.0236 54.1935 8.7296 49.8659 7.22018 44.0322H15.8357C16.8677 45.3949 18.4868 46.2902 20.3226 46.2902C22.1584 46.2902 23.7786 45.3949 24.8095 44.0322H33.425C31.9156 49.8659 26.6216 54.1935 20.3226 54.1935Z" fill="#444444"/>
<path d="M66.6129 49.6774H40.6452V40.6451C40.6452 29.4397 31.528 20.3225 20.3226 20.3225C9.11716 20.3225 0 29.4397 0 40.6451C0 51.8505 9.11716 60.9677 20.3226 60.9677H39.5161C40.1391 60.9677 40.6452 60.4616 40.6452 59.8386V56.4515H63.2258V59.8386C63.2258 60.4616 63.7319 60.9677 64.3548 60.9677H68.871C69.4939 60.9677 70 60.4616 70 59.8386V53.0644C70 51.1972 68.4801 49.6774 66.6129 49.6774ZM38.3871 58.7096H20.3226C10.3625 58.7096 2.25806 50.6052 2.25806 40.6451C2.25806 30.685 10.3625 22.5806 20.3226 22.5806C30.2827 22.5806 38.3871 30.685 38.3871 40.6451V58.7096ZM40.6452 54.1935V51.9354H63.4336C63.3068 52.2899 63.2258 52.667 63.2258 53.0644V54.1935H40.6452ZM67.7419 58.7096H65.4839V53.0644C65.4839 52.4426 65.9911 51.9354 66.6129 51.9354C67.2348 51.9354 67.7419 52.4426 67.7419 53.0644V58.7096Z" fill="#444444"/>
<path d="M68.871 2.25806H9.03226V1.12903C9.03226 0.50608 8.52618 0 7.90323 0H1.12903C0.50608 0 0 0.50608 0 1.12903V19.1936C0 19.8165 0.50608 20.3226 1.12903 20.3226H7.90323C8.52618 20.3226 9.03226 19.8165 9.03226 19.1936V18.0645H68.871C69.4939 18.0645 70 17.5584 70 16.9355V3.3871C70 2.76414 69.4939 2.25806 68.871 2.25806ZM6.77419 18.0645H2.25806V2.25806H6.77419V18.0645ZM67.7419 15.8065H9.03226V4.51613H11.2903V9.03226H13.5484V4.51613H15.8065V13.5484H18.0645V4.51613H20.3226V9.03226H22.5806V4.51613H24.8387V13.5484H27.0968V4.51613H29.3548V9.03226H31.6129V4.51613H33.871V13.5484H36.129V4.51613H38.3871V9.03226H40.6452V4.51613H42.9032V13.5484H45.1613V4.51613H47.4194V9.03226H49.6774V4.51613H51.9355V13.5484H54.1936V4.51613H56.4516V9.03226H58.7097V4.51613H60.9677V13.5484H63.2258V4.51613H67.7419V15.8065Z" fill="#444444"/>
</svg>
