<svg width="18" height="12" viewBox="0 0 18 12" fill="none" xmlns="http://www.w3.org/2000/svg">
<path d="M17.2984 10.9699C16.6487 11.7015 15.4491 12 13.1581 12H4.84177C2.49834 12 1.27841 11.6823 0.631103 10.9033C0 10.1438 0 9.02478 0 7.47598V4.52397C0 1.52345 0.7488 0 4.84177 0H13.1581C15.1449 0 16.2458 0.26336 16.958 0.909052C17.6884 1.57119 18 2.65229 18 4.52397V7.47598C18 9.10932 17.9512 10.235 17.2984 10.9699ZM11.5561 5.59242L7.77966 3.72278C7.69523 3.68098 7.60291 3.66024 7.5107 3.66024C7.4063 3.66024 7.30214 3.68686 7.20987 3.73978C7.03614 3.8395 6.93006 4.01788 6.93006 4.21028V7.93757C6.93006 8.12964 7.03585 8.30786 7.20923 8.40764C7.38267 8.50741 7.59838 8.51423 7.77832 8.42568L11.5547 6.56808C11.7469 6.47359 11.8675 6.28569 11.8678 6.08069C11.868 5.87553 11.7479 5.68736 11.5561 5.59242Z" fill="#444444"/>
</svg>
